<?xml version="1.0" standalone="no"?>
<!DOCTYPE svg PUBLIC "-//W3C//DTD SVG 1.1//EN" "http://www.w3.org/Graphics/SVG/1.1/DTD/svg11.dtd" >
<svg>
<metadata>
Created by FontForge 20120731 at Mon Aug 15 16:04:13 2016
 By www
(C)2000 Tepid Monkey Fonts-www.fontframe.com/tepidmonkey
</metadata>
<defs>
<font id="Scott" horiz-adv-x="495" >
  <font-face 
    font-family="Scott"
    font-weight="400"
    font-stretch="normal"
    units-per-em="1000"
    panose-1="0 0 4 0 0 0 0 0 0 0"
    ascent="800"
    descent="-200"
    x-height="390"
    cap-height="649"
    bbox="-70 -272 1066 949"
    underline-thickness="20"
    underline-position="-123"
    unicode-range="U+0020-20AC"
  />
<missing-glyph horiz-adv-x="500" 
d="M63 0v949h375v-949h-375zM125 63h250v824h-250v-824z" />
    <glyph glyph-name=".notdef" horiz-adv-x="500" 
d="M63 0v949h375v-949h-375zM125 63h250v824h-250v-824z" />
    <glyph glyph-name=".null" horiz-adv-x="0" 
 />
    <glyph glyph-name="nonmarkingreturn" horiz-adv-x="296" 
 />
    <glyph glyph-name="space" unicode=" " horiz-adv-x="296" 
 />
    <glyph glyph-name="exclam" unicode="!" horiz-adv-x="216" 
d="M112 299l-24 -17l-35 18q-1 17 -1 35q0 83 13 190l23 189h30q58 -39 58 -86q0 -75 -21 -166q-8 -30 -43 -163zM107 20h-70q-12 26 -12 46q0 33 30 53q55 -39 55 -78q0 -10 -3 -21z" />
    <glyph glyph-name="quotedbl" unicode="&#x22;" horiz-adv-x="432" 
d="M320 423q-36 0 -36 15v55q0 12 -1 32v23q0 91 5 130q13 98 57 98q40 0 40 -60q0 -86 -10 -164q-16 -129 -55 -129zM137 423q-36 0 -64 126q-23 104 -23 167q0 22 9 39q11 21 31 21q23 0 43 -35q17 -30 29 -145q10 -96 10 -158q0 -15 -35 -15z" />
    <glyph glyph-name="numbersign" unicode="#" horiz-adv-x="789" 
d="M751 370q-17 0 -49.5 4t-49.5 4q-73 0 -104 -68h180q7 -22 16 -66q-80 -19 -242 -16q-1 -22 -8 -73q-7 -46 -7 -72q-18 -4 -34 -18q-50 19 -50 81q0 27 16 50q-12 16 -36 16q-6 0 -17.5 -1t-17.5 -1q-52 0 -70.5 -14t-33.5 -64q-13 -42 -32 -99h-67q-2 18 -2 37
q0 54 19 110q1 0 -79 21q-44 12 -67 27v66q76 0 201 14q-27 20 -74 20q-38 0 -62 -3q-8 28 -17 83q37 12 91 15q19 1 103 1v20q0 53 18 92l44 -21q7 -47 26 -61q16 -12 66 -12q53 0 74 27q13 16 29 71q9 31 18 46q28 -13 38 -28t10 -45v-18q-1 -28 -1 -22q0 -15 2 -33h13
q53 0 82 6q7 1 28 7t30 6q18 0 27 -9q7 -13 15 -26v-51q-11 -3 -26 -3zM410 369q-7 0 -85 -13q0 -16 -5 -32q30 -19 74 -19q46 0 46 31q0 33 -30 33z" />
    <glyph glyph-name="dollar" unicode="$" horiz-adv-x="578" 
d="M512 579q-22 0 -46 -44.5t-24 -65.5q0 -25 31 -51q42 -36 48 -59q3 -10 3 -83q0 -84 -165 -105q-68 -171 -98 -171q-22 0 -37 37q-11 30 -11 57q0 45 33 70q-171 102 -246 175q-1 53 35 53q18 0 73 -41q41 -34 121 -89h48q47 112 47 176q-28 10 -70 50q-1 1 -60 61v50
q36 19 110 42.5t111 38.5q10 29 25 106q14 68 30 103h51q14 -16 14 -56q0 -37 -30 -170q33 -17 97 -48v-50q-13 1 -43.5 7.5t-46.5 6.5zM369 570q-12 0 -38 -19q21 -33 51 -35q3 19 3 28q0 26 -16 26zM406 367l-21 -85h38l21 85h-38z" />
    <glyph glyph-name="percent" unicode="%" horiz-adv-x="722" 
d="M507 32q-39 0 -69.5 34.5t-30.5 73.5q0 35 50 110q51 79 82 79q50 0 91 -45.5t41 -95.5q0 -59 -52.5 -107.5t-111.5 -48.5zM233 17q-18 5 -35.5 26.5t-17.5 39.5q0 21 86 175l109 195q-6 17 -19 17q-35 0 -81 -32q-18 -12 -61 -44q-38 -23 -71 -23q-43 0 -75.5 28.5
t-32.5 71.5q0 40 64 109.5t103 69.5h113q7 -37 7 -42q0 -12 -10 -24q33 -12 52 -12q18 0 42 15.5t38 15.5h65q17 -13 17 -43q0 -43 -125 -269q-120 -217 -168 -274zM560 228l-50 -82l32 -14l51 84zM213 557l-72 -61l20 -30l74 62z" />
    <glyph glyph-name="ampersand" unicode="&#x26;" horiz-adv-x="544" 
d="M447 523q-36 0 -84 10q-8 -33 -32 -95q32 -18 113 -16q1 -29 17 -49q-20 -24 -83 -64q-54 -34 -79 -81v-48q34 -8 97 -16q69 -9 98 -15v-51q-71 -17 -196 -17q-21 -37 -17 -101h-50q-3 68 -33 101q-16 18 -87 55q-36 19 -60 41v71q13 13 49 38t51 39q-29 15 -54 40
q-31 31 -31 56q0 52 52 92q41 23 82 47q53 32 72 56q16 20 23 50q4 18 11 55q15 71 56 102q30 -24 30 -56q0 -20 -12.5 -58.5t-12.5 -58.5q0 -8 1 -18q13 -7 126 -49v-50q-12 -10 -47 -10zM172 411h71q0 7 12 61q2 8 3 29q-27 -14 -53 -38q-32 -29 -33 -52zM210 192
q0 28 -12 52q-27 -22 -27 -41q0 -22 39 -22v11z" />
    <glyph glyph-name="quotesingle" unicode="'" horiz-adv-x="365" 
d="M279 423q-38 0 -67 126q-24 103 -24 167q0 22 10 39q11 21 32 21q25 0 46 -35q17 -29 30 -145q10 -92 10 -158q0 -15 -37 -15z" />
    <glyph glyph-name="parenleft" unicode="(" horiz-adv-x="433" 
d="M357 -12q-92 0 -213 80q-129 85 -129 169t80 203q77 114 154 159h53q17 -9 17 -43q0 -6 -33 -46l-110 -134q-72 -95 -72 -139q0 -79 112 -114q38 -12 89 -20l79 -13q7 -27 17 -84q-10 -18 -44 -18z" />
    <glyph glyph-name="parenright" unicode=")" horiz-adv-x="455" 
d="M266 -79q-52 36 -52 67q0 24 49 115.5t49 118.5q0 121 -182 280q-22 19 -78 67l35 49q129 -70 212 -168q101 -119 101 -245q0 -77 -38 -155q-36 -74 -96 -129z" />
    <glyph glyph-name="asterisk" unicode="*" horiz-adv-x="577" 
d="M427 498q-33 0 -67 -16q8 -12 22 -28q59 -68 59 -81q0 -12 -27 -12q-13 0 -64 30q-13 8 -29 13v-111q0 -11 -26 -11q-23 0 -31 21q-3 8 -9 40q-4 20 -13 35l-26 -29h-40q-5 12 -5 29q0 11 2.5 32t2.5 32q-38 10 -75 20q-44 13 -70 32v41q22 4 89 4q40 0 71 8
q-10 24 -29 52q-10 15 -26 41q20 28 40 28q24 0 50 -44q4 -7 17 -32q8 40 9 76v61q0 41 4 67q39 -21 65.5 -62.5t26.5 -84.5q0 -40 -30 -76q12 -3 128 -16q67 -8 112 -22v-66q-103 29 -131 29z" />
    <glyph glyph-name="plus" unicode="+" horiz-adv-x="517" 
d="M461 212q-13 0 -39.5 2t-39.5 2q-67 0 -93 -36q-5 -65 -38 -163h-51q-18 31 -18 131q-13 13 -37 13q-22 0 -75 -14q-10 17 -34 50q9 32 43 44q17 3 66 14q43 9 59 39q9 18 19 73q9 51 10 92h12q43 0 59 -26q12 -20 12 -65q0 9 -1 -25v-25l1 -22h146q8 -28 17 -83
q-8 -1 -18 -1z" />
    <glyph glyph-name="comma" unicode="," horiz-adv-x="291" 
d="M93 -172l-53 51q4 21 70 78q17 15 25 24q2 11 2 21q0 29 -13 82.5t-14 79.5h53q70 -98 70 -168q0 -65 -37 -114q-40 -53 -103 -54z" />
    <glyph glyph-name="hyphen" unicode="-" horiz-adv-x="486" 
d="M104 202q-11 0 -29 7l-28 11v69q65 30 168 63q120 39 164 39q19 0 34 -18q11 -18 22 -35q-77 -38 -172 -80q-128 -56 -159 -56z" />
    <glyph glyph-name="hyphen" unicode="&#x2010;" horiz-adv-x="486" 
d="M104 202q-11 0 -29 7l-28 11v69q65 30 168 63q120 39 164 39q19 0 34 -18q11 -18 22 -35q-77 -38 -172 -80q-128 -56 -159 -56z" />
    <glyph glyph-name="period" unicode="." horiz-adv-x="230" 
d="M92 12l-36 37l18 87h73q1 -15 9.5 -44t9.5 -44q-37 -32 -74 -36z" />
    <glyph glyph-name="slash" unicode="/" horiz-adv-x="609" 
d="M358 218l-275 -329q-29 6 -65 21q-20 18 -20 46q0 20 252 298l301 332q35 -32 35 -73q0 -22 -228 -295z" />
    <glyph glyph-name="zero" unicode="0" horiz-adv-x="529" 
d="M203 30q-63 0 -110.5 50.5t-47.5 114.5q0 57 103 205.5t153 148.5q82 0 158 -245q16 -51 16 -59q0 -96 -91 -159q-80 -56 -181 -56zM308 431q-27 -29 -61 -58q-59 -51 -78 -82q-29 -46 -29 -111q0 -8 4 -21t4 -19l114 -5q51 0 96.5 38.5t45.5 88.5q0 96 -96 169z" />
    <glyph glyph-name="one" unicode="1" horiz-adv-x="326" 
d="M221 230l-51 -110q-19 -41 -32 -80q-20 -18 -54 -18q-9 8 -25 25q-10 14 -10 35q0 16 56 137q29 62 70 155q7 26 28 74q10 17 36.5 31t47.5 17v-99q0 -25 -66 -167z" />
    <glyph glyph-name="two" unicode="2" 
d="M314 60q-69 0 -117 -12q-7 -2 -43 -16q-30 -12 -41 -12q-33 0 -65 49q35 39 124 143q62 75 110 169q-40 0 -94 -26q-73 -35 -90 -40q-8 28 -18 85q161 114 219 114h99q1 -8 9.5 -26t8.5 -34q0 -36 -169 -287q34 -8 100.5 -16.5t98.5 -15.5v-84q-80 9 -132 9z" />
    <glyph glyph-name="three" unicode="3" horiz-adv-x="447" 
d="M222 12q-48 0 -132 50v51q88 8 83 8q40 0 114 -8q2 38 32 68q-39 46 -89 46q-11 0 -32.5 -8t-32.5 -8q-21 0 -26 9l-17 25v51q24 13 50 39l45 45q17 17 41 33q-31 10 -65 10q-25 0 -76 -5.5t-76 -5.5v67l110 32q64 18 112 18q38 0 72 -22q37 -26 37 -62q0 -27 -24 -65
q-12 -19 -43 -69q87 -40 87 -125q0 -70 -50.5 -122t-119.5 -52z" />
    <glyph glyph-name="four" unicode="4" horiz-adv-x="570" 
d="M388 199v-168q0 -15 -34 -15q-40 0 -49 87q-3 27 -1 129q-21 0 -61.5 7t-61.5 7q-20 0 -55 -15.5t-53 -16.5q-28 32 -34 63q92 81 281 237q41 -3 66 -56q21 -43 21 -90q0 -25 -7 -43q0 -13 4 -31q4 -9 32 -9q21 0 58 27q6 4 9 5l17 -16v-72q-34 -30 -132 -30zM250 324
l51 -4l2 55z" />
    <glyph glyph-name="five" unicode="5" horiz-adv-x="450" 
d="M173 385q-10 -16 -34 -47q29 -11 79 -12q19 0 70 -8q47 -14 74 -54t27 -90q0 -71 -47.5 -111t-119.5 -40q-87 0 -182 69q25 31 28 34q19 18 38 18q16 0 48.5 -16.5t50.5 -16.5q2 0 58 12q9 2 23 2q1 9 8 26t7 31q0 31 -16 44q-14 10 -47 10q-34 0 -84 -12l-83 -20
q-46 25 -50 53q50 112 52 230q37 0 110 10t110 10q151 0 160 -104q-168 0 -280 -18z" />
    <glyph glyph-name="six" unicode="6" horiz-adv-x="500" 
d="M208 21q-96 0 -136 36.5t-40 130.5q0 88 101 358q25 -4 47.5 -23.5t22.5 -43.5q0 -48 -41 -151.5t-41 -161.5q0 -33 30 -58q32 21 54 55q13 23 40 67q49 76 136 76q36 0 61 -32.5t25 -69.5q0 -73 -94 -131q-85 -52 -165 -52zM371 201q-21 0 -48 -18t-27 -38q0 -18 22 -18
q20 0 47.5 18.5t27.5 37.5q0 18 -22 18z" />
    <glyph glyph-name="seven" unicode="7" horiz-adv-x="459" 
d="M282 2h-52q-17 45 -17 57q0 28 50 159l65 173q-41 29 -85 34h-91q-72 0 -117 47v51q59 3 112 3q221 0 283 -51q-52 -237 -148 -473z" />
    <glyph glyph-name="eight" unicode="8" horiz-adv-x="462" 
d="M363 300q23 -49 23 -91q0 -83 -83 -149q-77 -62 -163 -62q-40 0 -72 24t-32 63q0 60 106 156q13 12 48 43q-104 68 -104 124q0 32 73 73q67 38 106 38q30 0 88 -61t58 -91q0 -42 -48 -67zM279 429q-19 -1 -42 -17q-26 -17 -27 -34l47 -30q5 -3 16 -13l49 47zM256 234
q-111 -52 -111 -98q0 -34 46 -34q49 0 80 43q26 37 29 89h-44z" />
    <glyph glyph-name="nine" unicode="9" horiz-adv-x="397" 
d="M240 19h-68q-2 5 -12 22q-6 11 -6 28q0 24 29 96q15 38 43 116q-24 -13 -41 -13q-45 0 -95.5 43.5t-50.5 87.5q0 47 64 102t112 55q16 0 91 -66q18 -16 28 -22q23 -36 23 -77q0 -38 -47 -181q-39 -118 -70 -191zM216 455q-26 -13 -46 -38q-23 -27 -24 -53h70v91z" />
    <glyph glyph-name="colon" unicode=":" horiz-adv-x="246" 
d="M112 392q-71 24 -71 65q0 23 -1 16q1 7 9 11q5 3 11 8l70 -18zM164 49h-54q-1 10 -10 32t-9 34q0 19 11 30q2 2 26 21q46 -23 70 -67q-10 -18 -34 -50z" />
    <glyph glyph-name="semicolon" unicode=";" horiz-adv-x="196" 
d="M51 371q-13 29 -13 51q0 32 31 53q22 -3 55 -35v-69h-73zM105 -217q-18 10 -50 35q43 117 43 156q0 33 -33 61.5t-33 46.5q0 53 36 53q50 0 90 -61q37 -55 37 -108q0 -47 -27 -100q-25 -47 -63 -83z" />
    <glyph glyph-name="less" unicode="&#x3c;" horiz-adv-x="484" 
d="M333 381l-78 -36q-40 -19 -60 -35q48 -37 118 -79q32 -19 115 -68v-52q0 -22 -6.5 -28t-28.5 -6q-21 0 -165 81q-108 61 -184 102q21 122 262 212q47 18 104 38q19 -14 19 -51q0 -30 -96 -78z" />
    <glyph glyph-name="equal" unicode="=" horiz-adv-x="500" 
d="M120 275q-24 0 -47 3q0 30 -16 50q25 26 126 56q94 28 138 28h114q6 -28 15 -84q-55 -1 -164 -27t-166 -26zM115 47q-11 0 -29 7q-21 8 -29 11v68q70 30 170 62q120 38 165 38q20 0 35 -17q12 -17 23 -34q-86 -42 -174 -80q-129 -55 -161 -55z" />
    <glyph glyph-name="greater" unicode="&#x3e;" horiz-adv-x="449" 
d="M162 180q-30 -11 -104 -38q-19 14 -19 52q0 30 97 78q13 6 77 36q42 20 61 34q-54 42 -119 80q-32 18 -114 67l-1 53q0 22 7 28t29 6q19 0 164 -82q76 -43 184 -101q-21 -123 -262 -213z" />
    <glyph glyph-name="question" unicode="?" horiz-adv-x="407" 
d="M241 380q-21 -19 -59 -56q13 -39 13 -44v-53q-20 -20 -49 -20q-34 0 -61 26.5t-27 60.5q0 22 95 116q15 15 74 72q42 41 55 57q-40 8 -79 8q-15 0 -97 -6q-36 -3 -62 -3v50q100 50 209 50q91 0 123 -48q1 -7 1 -14q0 -50 -48 -109q-24 -29 -88 -87zM109 14q-21 42 -21 73
q0 15 5 26h68q8 -21 17 -66q-32 -29 -69 -33z" />
    <glyph glyph-name="at" unicode="@" horiz-adv-x="731" 
d="M456 152q-13 0 -38 16.5t-43 16.5q-14 0 -41 -8t-41 -8q-101 0 -101 101q0 71 55 148q60 83 128 83q59 0 82 -59q12 -30 19 -110q5 -50 12 -80q27 21 94 79q51 47 51 102q0 72 -60 124t-133 52q-151 0 -236 -77q-88 -81 -88 -230q0 -166 107 -241q84 -59 261 -72l22 -29
q-59 -36 -99 -36q-153 0 -265.5 112.5t-112.5 265.5q0 177 118 280q113 98 293 98q103 0 182 -71q82 -74 82 -176q0 -83 -82 -180q-85 -101 -166 -101zM374 406q-44 0 -71 -42q-24 -37 -24 -80q0 -22 8 -29.5t30 -7.5q33 0 72.5 41t39.5 74q0 19 -18 31.5t-37 12.5z" />
    <glyph glyph-name="A" unicode="A" horiz-adv-x="547" 
d="M418 110v47q0 56 -33 56q-135 0 -198 -76q-45 -54 -80 -198q-20 4 -36.5 24t-16.5 40q0 56 75 259q67 180 108 262q17 33 53 83q49 68 57 80h54q31 0 44 -83q37 -229 37 -585q-61 9 -64 91zM368 611q-25 -56 -79 -172q-44 -95 -66 -173q118 39 187 34l-14 153
q-9 82 -28 158z" />
    <glyph glyph-name="B" unicode="B" horiz-adv-x="579" 
d="M348 64q-42 -15 -179 -26q-1 -1 -32 -41h-51q-2 6 -11 21q-7 10 -7 29q0 28 15 83l24 84l3 10q19 73 39 153q24 97 38 173q-27 -13 -64 -38q-10 -7 -51 -31q-15 13 -35 16v51q26 51 162 93q119 37 194 37q120 0 120 -74q0 -54 -134 -186q18 -9 56 -25q47 -19 66 -36
q28 -25 28 -68q0 -62 -61 -135q-58 -68 -120 -90zM382 607q-10 0 -20 -1q-33 -3 -64 -61q-14 -27 -52 -100q137 91 183 161q3 0 -27 1h-20zM346 328q-37 3 -121 5l-23 -101q-15 -58 -31 -99h126q36 0 90 71q7 10 73 103q-26 15 -114 21z" />
    <glyph glyph-name="C" unicode="C" horiz-adv-x="520" 
d="M424 380q-46 17 -46 59q0 15 5 44.5t5 44.5q0 14 -3 26q4 1 10 7l-6 9q-10 3 -23 3q-138 0 -226 -227q-23 -59 -23 -77q0 -160 196 -160q13 0 175 15q-5 -30 -20 -63q-72 -39 -155 -39q-119 0 -201 72.5t-82 190.5q0 108 126.5 241.5t234.5 133.5q98 0 98 -84
q0 -67 -65 -196z" />
    <glyph glyph-name="D" unicode="D" horiz-adv-x="693" 
d="M301 22q-53 0 -135.5 49.5t-110.5 96.5q31 0 61 6q25 52 89 193q61 138 61 190q0 5 -1 31q-32 15 -106 17q-5 0 -100 -1v66h142q185 0 301 -78q136 -91 136 -267q0 -135 -103 -221q-97 -82 -234 -82zM355 585q-9 -32 -87 -230q-68 -171 -68 -202q0 -45 25 -45h130
q75 0 144 63t69 138q0 95 -60.5 174.5t-152.5 101.5z" />
    <glyph glyph-name="E" unicode="E" horiz-adv-x="664" 
d="M664 613q-35 -6 -212 -15q-125 -6 -183 -45q-80 -53 -91 -191q95 13 168 13t124 -12v-67q-18 -2 -162 -2q-109 0 -162 -33q-63 -40 -79 -141q39 -14 89 -14q56 0 164.5 20.5t161.5 21.5q21 -16 36 -45l-33 -31q-83 -14 -250 -37q-109 -15 -147 -15q-49 0 -71 8
q-35 13 -35 51q0 39 80.5 205t80.5 207q0 21 -24 38q-9 7 -39 26v51q32 6 162 39q101 26 164 26h305q1 -34 -15 -49q-4 -4 -32 -9z" />
    <glyph glyph-name="F" unicode="F" horiz-adv-x="507" 
d="M161 417q0 -5 -2 -19l16 -11q75 21 152 21q40 0 72 -6v-50q-47 -6 -142 -20q-87 -15 -129 -51q-23 -20 -35 -66q-5 -25 -16 -75q-23 -102 -78 -135q2 94 32 269q-20 37 -20 55q0 6 11 17q38 40 51 62q20 35 20 80q0 29 -8 61q7 28 25 45q14 13 147 49q130 35 159 35h127
v-66q-382 -52 -382 -195z" />
    <glyph glyph-name="G" unicode="G" horiz-adv-x="717" 
d="M521 256q8 -27 8 -47q0 -91 -106 -147q-90 -48 -191 -48q-88 0 -143 36q-65 43 -65 126q0 113 163 282q143 148 270 210l66 -16v-54q-130 -45 -264 -174q-151 -145 -151 -265q0 -7 1 -16q24 -41 62 -53q22 -7 79 -7q67 0 127 28q78 36 78 97q0 28 -29 46q-17 11 -61 25
t-58 23q-37 25 -41 82q70 -1 208 -23.5t208 -23.5l16 -66q-44 -17 -123 -17q-25 0 -54 2z" />
    <glyph glyph-name="H" unicode="H" 
d="M348 20h-50q-15 19 -15 57q0 44 16 101q3 10 31 97q-26 14 -62 14h-33q-52 0 -79.5 -19.5t-40.5 -68.5q-4 -16 -15 -58q-15 -57 -41 -122h-51v95q0 58 157 524q43 -24 43 -89q0 -61 -37 -147q88 -30 152 -30q25 0 60 110q12 42 41 132q16 45 45 90q52 -2 52 -42
q0 -34 -45 -177q-20 -63 -59.5 -188t-68.5 -279z" />
    <glyph glyph-name="I" unicode="I" horiz-adv-x="623" 
d="M388 557q-30 -57 -49 -191q-15 -109 -15 -201q17 -4 137 -20q82 -11 136 -28v-51q-36 5 -77 5q-105 0 -238 -23q-32 -6 -236 -48q-27 32 -33 69q41 21 103 38l107 30q48 180 48 428q-26 -2 -48 -2q-75 0 -145 17v65q235 4 419 4q43 0 114 -36q-37 -27 -107 -39
q-39 -5 -116 -17z" />
    <glyph glyph-name="J" unicode="J" horiz-adv-x="737" 
d="M628 565q-42 -2 -140 -9q-28 -44 -56 -157q-13 -56 -42 -168q-63 -224 -178 -224q-35 0 -131.5 75t-96.5 106q0 20 34 49h79q-14 -26 -12 -53l1 -13q66 -61 126 -61q56 0 112 156q48 135 48 203v80l-160 -35q-28 32 -34 68q69 66 278 66q167 0 273 -35q-14 -40 -101 -48z
" />
    <glyph glyph-name="K" unicode="K" horiz-adv-x="623" 
d="M554 19q-29 0 -188 84l-202 108q-20 -32 -42 -99q-9 -28 -38 -92q-34 -8 -44 -8q-25 0 -25 35q0 22 25 88q31 81 34 94q56 221 57 423q59 1 69 -68q0 -43 12 -127q5 2 164 90q92 51 161 74l34 -34q1 -30 -18 -48q-1 -1 -4 -2l-10 -4l-34 -16q-27 -12 -58 -26
q-38 -19 -116 -68q-81 -51 -119 -73q69 -73 190 -141q57 -31 200 -113v-67q-41 -10 -48 -10z" />
    <glyph glyph-name="L" unicode="L" horiz-adv-x="560" 
d="M517 78q-86 0 -309 -37q-90 -15 -108 -15q-37 0 -61 32q-22 29 -22 67q0 37 78 257q76 214 104 263q32 18 63 21q2 -6 11 -28q6 -16 6 -29q0 -20 -59 -185q-43 -119 -75 -194l-46 -106l170 16q96 9 164 9q62 0 116 -7q-6 -38 -32 -64z" />
    <glyph glyph-name="M" unicode="M" horiz-adv-x="751" 
d="M684 126q0 -35 2 -62h-102l9 17q4 76 4 150q0 79 -1 101q-3 56 -16 111q-40 -52 -62 -93q-23 -45 -68 -133q-41 -79 -79 -126q-35 -1 -55 83q-12 84 -20 121q-14 63 -40 115q-31 -61 -72.5 -191.5t-72.5 -191.5q-68 24 -68 66q0 33 90 247q80 190 123 275q36 -60 67 -142
q17 -45 62 -165q45 53 129 163.5t129 163.5h43v-121q0 -65 -1 -194z" />
    <glyph glyph-name="N" unicode="N" horiz-adv-x="640" 
d="M403 5q-28 70 -46 170l-31 175q-12 65 -36 127q-53 -78 -105 -219q-30 -81 -40 -107q-23 -59 -48 -103h-53q-16 41 -16 58q0 38 156 373q34 73 34 105q0 70 23 70h50q72 -127 128 -348q92 180 113 331q22 6 67 14v-131q0 -28 -82 -239q-73 -189 -114 -276z" />
    <glyph glyph-name="O" unicode="O" horiz-adv-x="507" 
d="M199 20q-63 0 -110.5 51t-47.5 114q0 33 26 124q35 125 83 221q74 149 147 149q81 0 158 -244q16 -51 16 -58q0 -102 -85 -225q-91 -132 -187 -132zM285 562q-51 -55 -110 -184q-62 -135 -62 -202q0 -19 13 -36q3 -5 7 -16h121q50 0 101 113q45 100 45 156q0 83 -115 169
z" />
    <glyph glyph-name="P" unicode="P" horiz-adv-x="587" 
d="M332 333q-33 -5 -117 -18q-23 -37 -59 -164q-28 -99 -74 -140q-35 31 -35 67q0 28 30 106l60 157q32 97 32 162q0 24 -6 49q-29 -10 -64 -51q-69 24 -69 67q0 46 134 85q110 32 181 32q232 0 232 -158q0 -95 -80 -143q-54 -33 -165 -51zM496 572q-4 6 -10 23h-218
q0 -116 -19 -185h77q38 0 106 43q74 47 74 82q0 23 -10 37z" />
    <glyph glyph-name="Q" unicode="Q" horiz-adv-x="556" 
d="M494 44q-15 0 -46.5 24t-50.5 24q-25 0 -69 -21q-23 -11 -69 -34q-24 -9 -40 -9q-182 0 -182 189q0 93 38.5 188t102.5 163q3 21 10 64q48 50 112 50q95 0 150 -134q43 -105 43 -220q0 -24 -14 -80q-13 -52 -11 -76l1 -11q14 -15 42.5 -46t31.5 -54q-5 -1 -17 -9t-32 -8z
M350 572q-28 18 -50 20q7 -13 7 -19q0 -10 -20 -40q-6 -9 -8 -13q-16 -16 -51 -46q-49 -35 -84 -111q-33 -72 -33 -136q0 -112 108 -112q19 0 67 18q12 3 41 5q-48 24 -78 84q6 10 20 27q9 11 31 11q20 0 76 -25q15 -5 32 -5q0 29 9.5 87.5t9.5 87.5t-12 72q-20 66 -65 95z
" />
    <glyph glyph-name="R" unicode="R" horiz-adv-x="556" 
d="M551 9h-48q-30 0 -174 68q-115 54 -185 94q-12 -19 -35 -80q-20 -55 -64 -65q-2 7 -10 22q-7 11 -7 27q0 37 25 162q17 81 34 163q22 109 22 127q0 29 -16 44q-9 9 -40 22q-6 3 -25 12v39q38 35 104 35q97 0 190 -64q101 -69 101 -160q0 -65 -56 -105q-20 -14 -111 -53
q-51 -22 -79 -44q47 -48 150 -91q56 -23 167 -69q46 -20 73 -49q-13 -16 -16 -35zM335 519q-19 19 -61 51q-28 17 -75 17h-57q40 -46 40 -104q0 -12 -1.5 -36t-1.5 -36q0 -20 4 -41h61q29 12 48 23q28 15 43 30v96z" />
    <glyph glyph-name="S" unicode="S" horiz-adv-x="523" 
d="M466 52q-52 -48 -125 -48q-61 0 -163 57q-98 55 -139 106v67h52q50 -50 108 -90q77 -53 126 -53q36 0 54 30v45q0 31 -52 99q-1 2 -73 92q-126 159 -138 241q31 17 94.5 32.5t98.5 15.5q63 0 92 -13q37 -17 64 -70v-81q-47 14 -61 27t-55 51h-101l-32 -30
q86 -90 162 -211q93 -148 93 -233q0 -19 -5 -34z" />
    <glyph glyph-name="T" unicode="T" horiz-adv-x="630" 
d="M362 554q-48 -45 -90 -261q-16 -86 -54 -286q-24 3 -46 18.5t-22 38.5q0 28 11 66q9 32 19 65q15 62 28 150l24 169q-30 9 -75 9q-27 0 -82 -4.5t-82 -4.5v65q105 21 343 59q139 22 170 22h127q0 -29 14 -49q-140 -48 -285 -57z" />
    <glyph glyph-name="U" unicode="U" horiz-adv-x="509" 
d="M355 49q-21 -16 -60 -30q2 18 2 35q0 54 -18 94q-89 -84 -155 -84q-109 0 -109 156q0 86 27 208q31 139 73 190h72v-84q0 -24 -27 -88q-25 -58 -43 -84q-33 -33 -32 -94l1 -103q6 -2 19 -10q8 -4 27 -4q99 0 191 225q32 78 61 175l40 132h51q18 -13 18 -50
q0 -52 -57 -287q-54 -221 -81 -297z" />
    <glyph glyph-name="V" unicode="V" horiz-adv-x="598" 
d="M410 336l-188 -311h-5q-41 0 -77 50q-29 40 -80 222l-68 246l34 34q45 -20 84 -128q15 -41 47 -161q19 -70 31 -99q76 57 169 223q40 72 138 247h53q16 -32 16 -42q0 -25 -154 -281z" />
    <glyph glyph-name="W" unicode="W" horiz-adv-x="720" 
d="M423 28q-26 0 -79 46q-45 38 -67 69q-23 -15 -52 -43l-48 -48q-44 -40 -61 -40q-53 0 -72 53q-12 34 -12 103q0 -16 11 172q0 24 2 127t4 105q8 18 34 18q32 0 43 -70q6 -37 6 -97q0 -39 -4 -117t-4 -117q0 -33 7 -63q36 34 66 90q25 50 76 150q54 104 85 124
q6 -25 6 -55q0 -32 -9 -94.5t-9 -94.5q0 -65 29 -116h46q73 0 131 204q43 153 50 270q14 18 47 49q35 -27 35 -58q0 -72 -34 -204q-32 -122 -77 -215q-72 -148 -150 -148z" />
    <glyph glyph-name="X" unicode="X" horiz-adv-x="518" 
d="M289 325q80 -81 166 -270l-35 -34q-39 25 -80 89q-27 45 -55 91q-33 53 -64 84q-40 -39 -80 -119q-52 -104 -68 -128h-70v65q0 28 69 129q61 89 97 127q-56 103 -116 195q0 6 -1 18.5t-1 18.5q0 33 38 33q23 0 76 -90q21 -38 73 -125q35 28 83 74q39 38 79 77
q53 50 102 79h52v-53q-87 -85 -265 -261z" />
    <glyph glyph-name="Y" unicode="Y" horiz-adv-x="480" 
d="M442 446l-87 -203q-52 -121 -73 -227h-69v97q0 50 83 214q-100 75 -296 228v40q0 19 7.5 24.5t27.5 5.5q21 0 135 -88l144 -111l146 247q21 -2 37.5 -16t16.5 -35q0 -8 -72 -176z" />
    <glyph glyph-name="Z" unicode="Z" horiz-adv-x="762" 
d="M51 21q-34 21 -34 51q0 12 175 221q143 171 214 250q-22 23 -57 23q-32 0 -93 -21t-93 -21h-112q-14 20 -14 48q0 8 1 17q96 53 161 53h322q18 -13 18 -51q0 -40 -310 -396v-28q75 35 148 35h385v-67q-312 -22 -360 -28q-193 -24 -351 -86z" />
    <glyph glyph-name="bracketleft" unicode="[" horiz-adv-x="345" 
d="M211 40q-25 -14 -102 -14q-37 0 -62 32q-22 29 -22 67q0 132 30 433q4 43 24 72q25 36 64 36q102 0 103 -20q13 -3 27 -3h12q9 1 12 1q27 -25 33 -64q-40 -5 -64 -5q-20 0 -65 10q-20 4 -80 13q6 -15 6 -27q0 -20 -11 -60t-11 -60q0 -10 3 -17q0 -125 -20 -173
q-6 -14 -6 -34q0 -17 6 -51.5t6 -51.5q0 -14 -7 -31q19 2 73 14q48 10 72 10t64 -6q-6 -38 -33 -63h-37q-13 0 -15 -8z" />
    <glyph glyph-name="backslash" unicode="\" horiz-adv-x="513" 
d="M472 -72q-26 0 -248 303q-206 279 -206 312q0 29 51 52q99 -90 226 -285q142 -218 213 -295v-52q0 -23 -6.5 -29t-29.5 -6z" />
    <glyph glyph-name="bracketright" unicode="]" horiz-adv-x="411" 
d="M124 652q39 14 103 14q39 0 64 -36q20 -29 24 -72q30 -301 30 -433q0 -38 -22 -67q-25 -32 -62 -32q-104 0 -102 19q-13 4 -28 4q-4 0 -12 -1h-13q-26 25 -32 63q40 6 64 6q22 0 65 -10q29 -7 80 -14q-7 17 -7 31q0 17 6 51.5t6 51.5q0 20 -6 34q-21 47 -21 173q4 7 4 17
q0 21 -11.5 60.5t-11.5 60.5q0 11 7 26q-22 -1 -73 -13q-47 -10 -72 -10q-24 0 -64 5q6 39 32 64h15q2 0 8 -1h11q16 1 18 9z" />
    <glyph glyph-name="asciicircum" unicode="^" horiz-adv-x="430" 
d="M344 347q-25 0 -67 84q-3 6 -31 67q-18 38 -30 54q-34 -43 -70 -104l-59 -99l-45 -1q-18 0 -23.5 5.5t-5.5 24.5q0 14 71 144l88 158q106 -18 184 -227q9 -26 33 -90q-12 -16 -45 -16z" />
    <glyph glyph-name="underscore" unicode="_" horiz-adv-x="492" 
d="M459 -142h-84q-18 0 -49 1h-35q-120 0 -284 -16q-7 24 -17 72q6 9 20 26q11 9 31 9q67 0 201 9t201 9q46 0 83 -73q-42 -37 -67 -37z" />
    <glyph glyph-name="grave" unicode="`" horiz-adv-x="245" 
d="M261 775q-5 -1 -14 -4q-20 -10 -25 -10q-42 0 -129 60q-90 62 -90 99q0 14 24 14q17 0 40 -8q28 -10 110 -73q85 -66 85 -84q3 1 6 4v4q-6 -2 -7 -2z" />
    <glyph glyph-name="a" unicode="a" horiz-adv-x="479" 
d="M391 17q-60 0 -94 68q-57 -67 -120 -67q-65 0 -106 57q-36 52 -36 119q0 81 62.5 152t142.5 71q72 0 106 -72q25 -53 25 -135q0 -47 -9 -110h99v-50q-30 -33 -70 -33zM249 362q-143 -92 -143 -168q0 -22 41 -86q8 -13 10 -25q34 11 85 65t51 87q0 32 -12 67
q-12 39 -32 60z" />
    <glyph glyph-name="b" unicode="b" horiz-adv-x="463" 
d="M200 14h-163v261q0 26 10 84q9 44 25 133q13 71 15 134h67q1 -25 1 -64q0 -146 -17 -204q31 -12 84 -18q100 -12 125 -21q70 -26 70 -90q0 -54 -81.5 -134.5t-135.5 -80.5zM126 256v-155q51 0 90 22q33 19 70 59q12 14 48 52q-72 17 -208 22z" />
    <glyph glyph-name="c" unicode="c" horiz-adv-x="438" 
d="M389 65q-81 -49 -144 -49q-65 0 -135 51q-75 55 -75 117q0 75 72.5 163t146.5 88q42 0 66 -26q16 -18 33 -63q12 -32 19 -45q-13 -16 -17 -36h-53q-9 11 -22 40t-26 42q-41 -26 -80 -68q-50 -53 -50 -87t41 -61q37 -26 72 -26q29 0 68 12l65 20l19 -17v-55z" />
    <glyph glyph-name="d" unicode="d" horiz-adv-x="501" 
d="M443 403q0 -395 -161 -395q-68 0 -146 63q-80 67 -80 133q0 46 74.5 118.5t121.5 72.5q17 0 41 -6q12 -3 47 -12q6 33 21 113q16 86 29 100q7 8 16 8q2 0 19 -2q20 -19 20 -69q0 -21 -1 -62t-1 -62zM333 289h-97q-25 -17 -74 -53v-101q20 -11 57 -37h114q21 45 21 90
t-21 101z" />
    <glyph glyph-name="e" unicode="e" horiz-adv-x="507" 
d="M277 18q-116 0 -176 37q-74 47 -74 156q0 81 86 148q80 62 164 62q29 0 71 -28q46 -29 46 -56v-151q-23 -1 -73.5 -9.5t-77.5 -8.5q-49 0 -114 33l-14 -15v-35q28 -45 110 -45q148 0 249 16q6 -18 19 -33q-7 -41 -91 -59q-56 -12 -125 -12zM304 330h-81q-22 -17 -64 -54
h145v54z" />
    <glyph glyph-name="f" unicode="f" horiz-adv-x="485" 
d="M419 412q-7 4 -40 34q-25 22 -59 34q0 -22 -6.5 -65t-6.5 -65q0 -59 82 -59q20 0 48 3q7 -22 17 -67q-52 -16 -165 -16v-180q-19 -4 -34 -18q-48 19 -48 74q0 9 1.5 25.5t1.5 25.5q0 22 -8 33q8 4 8 7q0 4 -12.5 9t-17.5 5q-18 0 -52.5 -8.5t-52.5 -8.5q-12 0 -21 3
q-7 23 -16 70q31 18 78 35l81 29q13 90 36 176q30 109 104 109q35 0 74 -57q32 -47 43 -94z" />
    <glyph glyph-name="g" unicode="g" horiz-adv-x="523" 
d="M271 -237q-53 0 -123.5 50t-90.5 100q32 -3 75 -21q36 -15 72 -31q25 -10 42 -10q41 0 73.5 28.5t32.5 68.5v164q-24 -8 -45 -8q-57 0 -110 32q-61 37 -61 90q0 74 66 125q61 48 136 48q54 0 86 -28.5t32 -81.5q0 -526 -185 -526zM342 320h-60q-55 -54 -55 -122h80
q61 28 61 84q0 38 -26 38z" />
    <glyph glyph-name="h" unicode="h" 
d="M405 32q-20 0 -35 42q-4 11 -24 99q-15 64 -30 95q-28 55 -74 55q-68 0 -104 -123q-25 -86 -27 -181q-68 29 -68 96q0 19 11 172q6 92 25 332q41 -23 50 -85l4 -104q1 -26 10 -33q-3 -4 -3 -6q0 -14 22 -14q14 0 40 8t40 8q71 0 134.5 -69.5t63.5 -141.5v-136
q0 -14 -35 -14z" />
    <glyph glyph-name="i" unicode="i" horiz-adv-x="279" 
d="M73 573q-14 29 -14 50q0 33 32 52h54v-102h-72zM210 101q-6 -25 -13 -76q-44 6 -69 32q-6 32 -6 102q0 217 38 273q13 -4 56 -50v-59l1 -60q0 -103 -7 -162z" />
    <glyph glyph-name="j" unicode="j" horiz-adv-x="474" 
d="M324 525q-5 -2 -27 -2q-23 0 -44 16q-17 17 -34 33v39l19 16q39 -18 57.5 -33.5t44.5 -51.5q-6 -7 -16 -17zM297 -153q-47 0 -139 55q-95 57 -106 98q12 19 34 19q27 0 72 -27q23 -15 70 -43q27 -13 44 -13q73 0 73 108q0 55 -27 180q-15 70 -15 87v81q73 -9 103 -127
q19 -74 19 -184q0 -86 -25 -148q-35 -86 -103 -86z" />
    <glyph glyph-name="k" unicode="k" horiz-adv-x="476" 
d="M454 9q-25 0 -153 60l-163 77q0 -38 -2 -77q-2 -46 -25 -46q-18 0 -54 18q-3 67 -22 274q-16 171 -16 273q4 1 7 1q59 0 81 -92q5 -22 14 -80q7 -49 16 -73q114 85 201 118l34 -36q-50 -67 -182 -165q16 -48 99 -87q44 -18 131 -57q44 -21 70 -54v-5q0 -49 -36 -49z" />
    <glyph glyph-name="l" unicode="l" horiz-adv-x="252" 
d="M167 9q-26 0 -45.5 30t-23.5 57q-8 69 -33 249q-23 156 -23 195q0 19 10 36t28 17q24 0 66 -52q6 -34 43 -321q15 -118 15 -196q0 -15 -37 -15z" />
    <glyph glyph-name="m" unicode="m" horiz-adv-x="732" 
d="M654 7q-65 26 -65 98q0 11 1.5 32.5t1.5 32.5q0 61 -37 101q-143 -145 -211 -265q-60 16 -60 71q0 23 9.5 68.5t9.5 68.5q0 29 -9 52l1 3l-5 12q-16 5 -28 5q-61 0 -77 -122q-7 -55 -5 -157h-51l-52 168q-30 101 -32 170l34 44q8 -4 34 -29q19 -19 42 -19q20 0 54.5 25
t51.5 25q50 0 70 -19q12 -12 31 -62q11 -29 30 -53q159 117 196 117q49 0 70 -83q13 -52 13 -128q0 -102 -17 -156z" />
    <glyph glyph-name="n" unicode="n" horiz-adv-x="592" 
d="M493 37q-36 0 -45 79q-12 102 -16 117q-20 69 -78 69q-116 0 -159 -194q-3 -24 -13 -70q-39 6 -65 34q-6 25 -42 135q-27 83 -28 137l35 45q57 -31 83 -103q38 43 85 71q56 34 104 34q40 0 107.5 -71.5t67.5 -112.5v-155q0 -15 -36 -15z" />
    <glyph glyph-name="o" unicode="o" horiz-adv-x="541" 
d="M256 14q-81 0 -144 52q-67 56 -67 135q0 81 68.5 144t149.5 63q88 0 150 -46q70 -51 70 -136q0 -97 -64.5 -154.5t-162.5 -57.5zM272 334q-28 0 -82.5 -60t-54.5 -89q0 -30 42 -62q39 -29 71 -29q56 0 109 47t53 102q0 42 -52 69q-42 22 -86 22z" />
    <glyph glyph-name="p" unicode="p" horiz-adv-x="535" 
d="M333 87q-16 0 -38 7q14 -75 24 -137.5t11 -123.5q-48 8 -66 32q-11 15 -34 164q-6 38 -9 50q-8 29 -55 80v5q0 20 8 46q8 22 15 44q5 16 6 35q-12 12 -36 12t-77 -14l-34 35q38 44 97 59q40 10 118 10q81 0 117 -9q51 -13 100 -57v-170q-74 -68 -147 -68zM354 308h-68
q-1 -12 -6 -39.5t-5 -42.5q0 -27 14 -38h64q27 19 27 54q0 36 -26 66z" />
    <glyph glyph-name="q" unicode="q" horiz-adv-x="498" 
d="M393 -164q-56 0 -56 72q0 25 7.5 73.5t7.5 72.5q0 50 -35 50q-17 0 -53.5 -16.5t-56.5 -16.5q-50 0 -102.5 44t-52.5 93q0 57 70.5 122.5t127.5 65.5q49 0 83 -25q22 -16 58 -64q25 -33 39 -47v-408q0 -16 -37 -16zM305 282l-25 23q-55 -3 -95 -45t-40 -97h84q12 9 55 25
q11 4 21 12v82z" />
    <glyph glyph-name="r" unicode="r" 
d="M439 346q-21 0 -63 5.5t-63 5.5q-76 0 -116 -44.5t-40 -121.5q0 -25 7 -75l10 -74l-30 -33q-23 15 -64 50q-4 144 -52 310q14 3 139 42q83 26 142 26q76 0 101 -12q30 -14 64 -73q-13 -6 -35 -6z" />
    <glyph glyph-name="s" unicode="s" horiz-adv-x="517" 
d="M343 15q-65 0 -168 47q-112 51 -135 103q3 1 26 12q13 7 30 7q13 0 72.5 -37t128.5 -37q21 0 57 4q-110 82 -235 238q33 31 95 64q68 37 102 37q28 0 77 -28q51 -31 55 -56q1 -6 1 -20q0 -4 -1 -32h-48q-12 0 -34 26t-39 26q-29 0 -76 -50l127 -97q85 -74 85 -121
q0 -31 -43.5 -58.5t-76.5 -27.5z" />
    <glyph glyph-name="t" unicode="t" horiz-adv-x="558" 
d="M297 367v-331q0 -15 -34 -15q-55 0 -55 207q0 55 4 90q-52 20 -163 16q-8 28 -18 84q52 18 112 18q18 0 37 -2q9 29 9 103q0 38 7 61h52q30 -60 32 -148h230q7 -27 16 -83h-229z" />
    <glyph glyph-name="u" unicode="u" horiz-adv-x="497" 
d="M433 20q-16 4 -50 32q-38 32 -60 32q-20 0 -66.5 -25t-67.5 -25q-72 0 -120 94q-40 79 -40 162q0 96 52 125q39 -34 48 -131q3 -33 3 -146q15 0 43.5 -7.5t42.5 -7.5q52 0 70 117q11 70 9 158l22 12t29 6q19 0 54 -158q0 -1 21 -104q13 -65 27 -99q-14 -16 -17 -35z" />
    <glyph glyph-name="v" unicode="v" horiz-adv-x="500" 
d="M187 22q-90 136 -151 318l35 35q40 -21 59 -62q12 -37 23 -73q15 -42 34 -69q91 89 180 232h70q17 -35 17 -51q0 -23 -114 -158q-93 -111 -153 -172z" />
    <glyph glyph-name="w" unicode="w" horiz-adv-x="592" 
d="M346 85q-18 0 -55.5 25t-59.5 25q-15 0 -44 -25t-46 -25q-28 0 -62 46q-32 43 -32 73q0 31 9.5 91.5t9.5 91.5q42 7 54 7q16 0 31 -6q6 -19 6 -45q0 -11 -1.5 -32.5t-1.5 -32.5q0 -29 11 -63q35 79 83 107q34 -37 33 -133q9 -1 27.5 -8t29.5 -7q106 0 106 153
q0 15 -3.5 43.5t-3.5 43.5v3l25 13q67 -41 67 -127q0 -79 -51 -146q-55 -72 -132 -72z" />
    <glyph glyph-name="x" unicode="x" horiz-adv-x="477" 
d="M366 300q-1 -1 -79 -77q27 -79 131 -151v-53h-49q-25 0 -79 58l-72 80l-100 -144h-68l-13 20q7 15 54 89q42 67 42 93q0 39 -82 120q0 -7 -1 19v19q0 32 37 32q30 0 66 -53q4 -6 49 -79q17 18 74 81q40 44 74 66h52q1 -2 11 -15q7 -9 7 -27q0 -20 -54 -78z" />
    <glyph glyph-name="y" unicode="y" horiz-adv-x="556" 
d="M464 172q-21 -77 -82 -328q-18 -4 -34 -18q-46 17 -46 77q0 27 11 80.5t11 80.5q0 10 -2 21q-29 28 -80 69q-60 48 -81 67q-105 93 -112 151q11 18 43 18q25 0 116 -92q14 -15 69 -72q35 -36 54 -52q36 37 59 101q13 37 38 111q23 -4 46 -23q25 -22 25 -43q0 -30 -13 -75
q-8 -24 -22 -73z" />
    <glyph glyph-name="z" unicode="z" horiz-adv-x="520" 
d="M78 13q-14 10 -17 19q-2 6 -2 25q0 14 96 114l74 77q33 34 51 64h-64q-55 0 -80 -7l-49 -14q-30 0 -60 35v52q36 18 105 18q58 0 133 -14q82 -15 128 -37v-53q-29 -18 -60 -53q-25 -32 -50 -63q-18 -22 -42 -46q57 -14 124 -15h110q6 -22 16 -68q-80 -13 -206 -21z" />
    <glyph glyph-name="bar" unicode="|" horiz-adv-x="231" 
d="M150 -19q0 -86 9 -157q-46 -61 -57 -61q-38 0 -47 85q-1 56 -2 111q-3 97 -3 206q0 470 18 490q16 17 43 17q13 0 35 -5q23 -105 23 -240q0 -74 -9.5 -223t-9.5 -223z" />
    <glyph glyph-name="asciitilde" unicode="~" horiz-adv-x="590" 
d="M514 241q-4 -35 -28 -72q-27 -44 -58 -44q-62 0 -173 143q-5 7 -46 62l-64 -133h-105l37 74q2 38 37 96q29 45 64 83q34 -26 120 -94q67 -54 116 -119l55 193l63 -29z" />
    <glyph glyph-name="exclamdown" unicode="&#xa1;" horiz-adv-x="200" 
d="M55 391q-30 20 -30 53q0 20 12 46h69q4 -11 4 -21q0 -39 -55 -78zM118 -204h-30l-24 189q-12 102 -12 190q0 18 1 35l35 18l24 -17l42 -163q22 -95 22 -166q0 -47 -58 -86z" />
    <glyph glyph-name="cent" unicode="&#xa2;" horiz-adv-x="443" 
d="M260 148q0 -9 9 -83q-4 -7 -4 -16q0 -4 1.5 -11.5t1.5 -10.5q0 -15 -14 -15q-23 0 -32 17q-7 12 -11 53q-3 31 -5 73q-59 18 -107 58q-57 48 -57 102q0 64 54 137q51 69 112 98q0 33 5 73q6 46 29 46q3 -1 28 -5q3 -54 3 -102q52 -6 76 -60q8 -24 29 -72q-13 -16 -17 -35
h-52q-7 8 -15 26q-3 8 -23 46q-6 -78 -13 -230q27 4 65 15q15 4 54 16l18 -16v-55q-68 -42 -135 -49zM132 321q0 -44 72 -76q-1 45 -1 92t1 95q-72 -70 -72 -111z" />
    <glyph glyph-name="sterling" unicode="&#xa3;" horiz-adv-x="604" 
d="M529 583q-2 34 -54 34q-14 0 -41.5 -4.5t-41.5 -4.5q-27 0 -78 -68q-41 -55 -56 -93l-17 -43q55 14 77 14q20 0 34 -17q11 -17 22 -33q-72 -36 -176 -80q-10 -26 -71 -164l170 16q96 9 163 9q63 0 117 -7q-6 -39 -32 -64q-82 0 -309 -37q-92 -15 -107 -15q-37 0 -61 32
q-22 29 -22 67q0 14 11 53l20 65q-22 -6 -33 -6q-8 0 -27 7q-26 10 -28 10v67q44 19 130 47q16 54 56 157q31 61 85 106q62 50 123 50q98 0 139 -13q77 -24 79 -99z" />
    <glyph glyph-name="yen" unicode="&#xa5;" horiz-adv-x="554" 
d="M477 474l-76 -178q33 7 46 7q19 0 34 -18q11 -16 23 -33q-57 -28 -147 -67q-37 -99 -51 -169h-69q0 11 -1 33t-1 33q0 29 6 57q-55 -18 -66 -18t-29 7q-14 5 -28 11v66q61 27 172 61q15 33 29 61q-46 39 -148 114q-98 73 -147 114q0 6 -1 18t-1 18q0 21 8 27.5t29 6.5
t135 -88q25 -19 143 -111q49 83 147 247q20 -2 36.5 -16.5t16.5 -34.5q0 -7 -60 -148z" />
    <glyph glyph-name="dieresis" unicode="&#xa8;" horiz-adv-x="311" 
d="M304 769l-80 32q33 61 69 61q24 0 28 -4l11 -22zM42 742q-16 13 -44 43l8 54h3q10 -1 29 3.5t28 4.5q25 0 35 -13q10 -16 19 -33q-30 -42 -78 -59z" />
    <glyph glyph-name="copyright" unicode="&#xa9;" horiz-adv-x="814" 
d="M378 44q-105 -37 -156 -37q-94 0 -146 66q-47 61 -47 157q0 127 92 226q82 88 211 132q50 17 210 17q91 0 165 -53q81 -59 81 -147q0 -119 -150 -228q-111 -80 -260 -133zM548 545q-15 0 -35 -12q-14 -8 -40 -22q30 -16 30 -48q0 -40 -39 -118q-26 10 -26 34
q0 9 3.5 27.5t3.5 27.5t-2 18l8 8q-13 4 -21 4q-88 0 -142 -142q-13 -34 -13 -49q0 -101 122 -101q12 0 105 9l-6 -26q232 116 232 238q0 72 -56 114q-50 38 -124 38zM397 521q-114 0 -211 -94.5t-97 -208.5q0 -151 139 -151q49 0 194 55q-82 0 -136 39q-61 43 -61 122
q0 66 73 141q67 69 136 91q-27 6 -37 6z" />
    <glyph glyph-name="guillemotleft" unicode="&#xab;" horiz-adv-x="491" 
d="M333 290q34 -53 44 -69q26 -38 50 -64q0 -10 6.5 -30t6.5 -31q0 -20 -32 -19q-12 15 -84 89q-69 70 -92 92q32 80 78 154q60 96 113 118q18 -14 18 -51q0 -21 -46 -93zM148 290q29 -47 44 -68q26 -38 50 -65q1 -9 7 -29.5t6 -31.5q0 -20 -32 -19q-9 13 -83 88.5t-93 92.5
q32 82 78 154q61 96 113 118q19 -14 19 -51q0 -21 -47 -93z" />
    <glyph glyph-name="registered" unicode="&#xae;" horiz-adv-x="777" 
d="M385 43q-85 -27 -131 -27h-40q-79 0 -133 63q-52 59 -52 140q0 138 135.5 268.5t274.5 130.5q11 0 55 -31q20 -14 45 -22l47 -15q81 -32 114 -78.5t33 -131.5q0 -103 -126 -191q-92 -65 -222 -106zM522 509q-19 4 -84 17q-10 9 -7 33q-62 -15 -130 -48q57 -8 103 -39
q55 -37 55 -89q0 -37 -31 -59q-9 -7 -64 -30q-28 -12 -47 -27q25 -26 73 -48l82 -34q31 -13 51 -25q163 81 163 180q0 76 -46 117q-38 34 -118 52zM413 421q-11 12 -36 31q-16 10 -45 10h-36q23 -27 25 -53q1 -10 0 -24q-1 -17 -1 -27q0 -11 2 -26h38q18 8 53 32v57z
M301 222q-10 -14 -15 -29q-11 -30 -13 -33q-9 -17 -27 -21q-9 18 -9 25q0 13 8 49q12 53 25 106q14 66 14 106q0 27 -30 39q-5 2 -18 8q-159 -114 -159 -259q0 -59 51 -100q48 -38 109 -38q79 0 238 63q-97 41 -174 84z" />
    <glyph glyph-name="plusminus" unicode="&#xb1;" horiz-adv-x="560" 
d="M478 344q-13 0 -39.5 1.5t-39.5 1.5q-66 0 -92 -35q-6 -65 -38 -163h-52q-17 31 -17 130q-13 13 -37 13q-22 0 -74 -14q-11 18 -34 50q9 32 43 44q11 2 65 14q43 9 59 39q10 18 19 73q8 47 9 91h12q43 0 59 -26q12 -20 12 -65v-25q-1 -28 -1 -24l1 -22h146q8 -28 16 -83
h-17zM487 17h-84q-18 0 -49 1h-35q-120 0 -284 -15q-7 22 -17 67q6 9 20 25q11 9 31 9q67 0 201 8t201 8q46 0 83 -68q-42 -35 -67 -35z" />
    <glyph glyph-name="twosuperior" unicode="&#xb2;" horiz-adv-x="777" 
d="M385 43q-85 -27 -131 -27h-40q-79 0 -133 63q-52 59 -52 140q0 138 135.5 268.5t274.5 130.5q11 0 55 -31q20 -14 45 -22l47 -15q81 -32 114 -78.5t33 -131.5q0 -103 -126 -191q-92 -65 -222 -106zM522 509q-19 4 -84 17q-10 9 -7 33q-135 -33 -237 -121
q-117 -101 -117 -225q0 -59 51 -100q48 -38 109 -38q36 0 110 20q118 32 207 82q132 74 132 163q0 76 -46 117q-38 34 -118 52zM503 375l-24 -24q-11 5 -33 13l11 68h38q2 1 3 1q3 -2 4 -13q2 -7 2 -21q0 -12 -1 -24zM329 364h-45v68h45q7 -15 7 -34t-7 -34zM421 167h-34
q-5 14 -10 41q-2 11 -12 54q-61 -39 -116 -95h-35q-1 4 -7 15q-5 7 -5 19q0 31 82 87q80 53 115 53q17 0 33 -33q13 -29 13 -49q0 -22 -24 -92z" />
    <glyph glyph-name="threesuperior" unicode="&#xb3;" horiz-adv-x="814" 
d="M378 44q-105 -37 -156 -37q-94 0 -146 66q-47 61 -47 157q0 127 92 226q82 88 211 132q50 17 210 17q91 0 165 -53q81 -59 81 -147q0 -119 -150 -228q-111 -80 -260 -133zM548 545q-15 0 -44.5 -17.5t-42.5 -17.5q-11 0 -32 5.5t-32 5.5q-114 0 -211 -94.5t-97 -208.5
q0 -151 139 -151q39 0 135 33q129 44 224 106q141 92 141 187q0 72 -56 114q-50 38 -124 38zM495 347h-34q-5 7 -5 20q0 31 16 61q14 -3 35 -23zM286 335q-15 4 -47 35q7 30 35 47q13 -7 22 -26q6 -17 13 -33zM298 124q-26 0 -66 35t-40 61v34q23 19 48 22q7 -20 26 -59
q15 -22 38 -22q19 0 69 41q19 16 64 52q11 -9 23 -12v-47q-107 -105 -162 -105z" />
    <glyph glyph-name="acute" unicode="&#xb4;" horiz-adv-x="244" 
d="M43 761q-5 0 -25 10q-1 1 -11 3q-1 1 -3 1q16 26 89.5 83.5t103.5 67.5q24 8 40 8q25 0 25 -14q0 -37 -91 -99q-87 -60 -128 -60z" />
    <glyph glyph-name="paragraph" unicode="&#xb6;" horiz-adv-x="715" 
d="M656 -4q-18 0 -50.5 32t-38.5 51q-8 24 -13 67q-6 47 -10 67q-12 58 -12 131q0 27 2 81.5t2 81.5v11h-1l1 30q-15 4 -28 4q-2 0 -27 -2q-15 -1 -30 1q-16 -68 -16 -154q0 -72 30.5 -180t30.5 -139q0 -35 -35 -67q-39 36 -52 105q-6 40 -20 119q-9 46 -30 80
q-48 8 -111 19q-100 18 -148 54q-62 47 -62 139q0 158 232 158q109 0 190 -10q144 -18 148 -62q13 -12 13 -42q0 -12 -2 -35t-2 -35q0 -15 2 -24q28 -127 28 -339q0 -18 14 -58t14 -60q0 -24 -19 -24z" />
    <glyph glyph-name="cedilla" unicode="&#xb8;" horiz-adv-x="199" 
d="M103 -272q-26 0 -57 15q-37 17 -37 40q0 14 9.5 24.5t23.5 10.5q9 0 33 -11.5t38 -11.5q12 0 32 5q-1 40 -14 62q-21 5 -60 18q-29 13 -29 40q0 18 12 35q18 25 20 31q11 24 35 24q31 0 31 -30q0 -21 -23 -55q33 -4 35 -5q22 -4 30 -13q31 -34 31 -106q0 -73 -110 -73z
" />
    <glyph glyph-name="guillemotright" unicode="&#xbb;" horiz-adv-x="497" 
d="M269 77q-32 -1 -32 19q0 11 6.5 31.5t7.5 29.5q26 30 94 133l-63 96q-46 71 -46 93q0 37 18 51q53 -22 113 -118q46 -74 78 -154q-14 -13 -91 -92q-38 -39 -85 -89zM85 77q-32 -1 -32 19q0 11 6 31.5t7 29.5q27 30 94 133l-62 96q-47 72 -47 93q0 37 19 51
q53 -22 113 -118q44 -69 78 -154q-19 -17 -93 -92.5t-83 -88.5z" />
    <glyph glyph-name="onequarter" unicode="&#xbc;" horiz-adv-x="634" 
d="M511 124v-107q0 -8 -20 -8q-24 0 -29 53q-1 10 -1 83q-13 0 -39.5 4.5t-39.5 4.5t-34.5 -10t-32.5 -11q-16 19 -20 38q58 50 175 148q25 -3 41 -35q12 -26 12 -55q0 -16 -5 -27q0 -11 8 -25q5 -3 17 -3q16 0 30 12q5 4 12 8l9 -9v-43q-21 -18 -83 -18zM89 318
q-13 -11 -34 -11q-22 18 -22 39q0 14 42.5 145.5t50.5 142.5q18 25 54 32v-66q0 -22 -40 -135zM77 9q-18 3 -39 12q-12 11 -12 28q0 14 191 290q181 262 238 335q21 -19 21 -44q0 -13 -179 -290q-171 -264 -220 -331zM421 199l38 -3l2 41z" />
    <glyph glyph-name="onehalf" unicode="&#xbd;" horiz-adv-x="611" 
d="M484 36q-60 0 -111 -20q-20 -8 -25 -8q-27 0 -48 32q121 133 165 221q-28 -1 -54 -13t-76 -34q-5 19 -12 57q111 79 151 79h68q1 -5 7 -19q5 -10 5 -21q0 -25 -119 -202q48 -7 141 -23v-55q-55 6 -92 6zM90 318q-13 -11 -34 -11q-22 18 -22 39q0 14 42.5 145.5
t50.5 142.5q18 25 54 32v-66q0 -22 -40 -135zM78 9q-18 3 -39 12q-12 11 -12 28q0 12 192 290q188 272 238 335q20 -19 20 -44q0 -13 -179 -290q-171 -264 -220 -331z" />
    <glyph glyph-name="threequarters" unicode="&#xbe;" horiz-adv-x="639" 
d="M130 338q-29 0 -80 30v29q8 0 24 2.5t25 2.5q25 0 72 -6q2 25 21 45q-26 31 -49 31q-8 0 -24.5 -5.5t-24.5 -5.5q-10 0 -24 20v30q11 7 58 52q11 11 28 22q-23 8 -44 8q-15 0 -46 -3.5t-46 -3.5v38q102 31 135 31q23 0 44 -14.5t21 -36.5q0 -15 -15 -39q-7 -12 -27 -44
q54 -26 54 -77q0 -42 -30 -74t-72 -32zM516 124v-107q0 -8 -19 -8q-24 0 -29 53q-2 19 -1 83q-13 0 -39.5 4.5t-39.5 4.5t-34.5 -10t-32.5 -11q-16 19 -20 38q58 50 175 148q24 -3 40 -35q13 -27 13 -55q0 -16 -5 -27q0 -22 8 -25q5 -3 16 -3q16 0 30 11q4 4 12 9l10 -9v-43
q-21 -18 -84 -18zM83 9q-18 3 -39 12q-13 11 -13 28q0 13 192 290q185 267 238 335q20 -19 20 -44q0 -13 -179 -290q-174 -270 -219 -331zM427 199l38 -3l2 41z" />
    <glyph glyph-name="questiondown" unicode="&#xbf;" horiz-adv-x="394" 
d="M312 331h-68q-8 21 -18 66q33 29 70 33q21 -42 21 -73q0 -15 -5 -26zM151 -194q-90 0 -122 48q-1 7 -1 14q0 50 48 109q24 29 88 87q21 19 59 56q-13 39 -13 44v53q20 20 49 20q34 0 61 -26.5t27 -60.5q0 -22 -95 -116q-15 -15 -74 -72q-43 -42 -56 -57q41 -8 79 -8
q27 0 80 4.5t80 4.5v-50q-100 -50 -210 -50z" />
    <glyph glyph-name="Agrave" unicode="&#xc0;" horiz-adv-x="567" 
d="M436 110v47q0 56 -33 56q-135 0 -198 -76q-45 -54 -80 -198q-20 4 -36.5 24t-16.5 40q0 56 75 259q67 180 108 262q17 33 53 83q49 68 57 80h54q31 0 44 -83q37 -229 37 -585q-61 9 -64 91zM386 611q-25 -56 -79 -172q-44 -95 -66 -173q118 39 187 34l-14 153
q-9 82 -28 158zM430 775q-5 -1 -14 -4q-20 -10 -25 -10q-42 0 -129 60q-90 62 -90 99q0 14 24 14q17 0 40 -8q28 -10 110 -73q85 -66 85 -84q3 1 6 4v4q-6 -2 -7 -2z" />
    <glyph glyph-name="Aacute" unicode="&#xc1;" horiz-adv-x="549" 
d="M418 110v47q0 56 -33 56q-135 0 -198 -76q-45 -54 -80 -198q-20 4 -36.5 24t-16.5 40q0 56 75 259q67 180 108 262q17 33 53 83q49 68 57 80h54q31 0 44 -83q37 -229 37 -585q-61 9 -64 91zM368 611q-25 -56 -79 -172q-44 -95 -66 -173q118 39 187 34l-14 153
q-9 82 -28 158zM262 761q-5 0 -25 10q-1 1 -11 3q-1 1 -3 1q16 26 89.5 83.5t103.5 67.5q24 8 40 8q25 0 25 -14q0 -37 -91 -99q-87 -60 -128 -60z" />
    <glyph glyph-name="Acircumflex" unicode="&#xc2;" horiz-adv-x="565" 
d="M436 110v47q0 56 -33 56q-135 0 -198 -76q-45 -54 -80 -198q-20 4 -36.5 24t-16.5 40q0 56 75 259q67 180 108 262q17 33 53 83q49 68 57 80h54q31 0 44 -83q37 -229 37 -585q-61 9 -64 91zM386 611q-25 -56 -79 -172q-44 -95 -66 -173q118 39 187 34l-14 153
q-9 82 -28 158zM386 712q-17 0 -45 57q-3 8 -22 47q-12 25 -22 39q-25 -31 -50 -74l-41 -69h-42q-7 0 -7 19q0 11 49 100q30 54 61 109q72 -13 126 -157q5 -13 19 -54l3 -8q-8 -9 -29 -9z" />
    <glyph glyph-name="Atilde" unicode="&#xc3;" horiz-adv-x="525" 
d="M396 110v47q0 56 -33 56q-135 0 -198 -76q-45 -54 -80 -198q-20 4 -36.5 24t-16.5 40q0 56 75 259q67 180 108 262q17 33 53 83q49 68 57 80h54q31 0 44 -83q37 -229 37 -585q-61 9 -64 91zM346 611q-25 -56 -79 -172q-44 -95 -66 -173q118 39 187 34l-14 153
q-9 82 -28 158zM489 801q-16 -85 -60 -85q-33 0 -87 60q-19 22 -71 89l-46 -96h-72l26 51q1 53 71 128q73 -57 90 -72q49 -43 79 -84l40 141l43 -20q-2 -30 -13 -112z" />
    <glyph glyph-name="Adieresis" unicode="&#xc4;" horiz-adv-x="563" 
d="M432 110v47q0 56 -33 56q-135 0 -198 -76q-45 -54 -80 -198q-20 4 -36.5 24t-16.5 40q0 56 75 259q67 180 108 262q17 33 53 83q49 68 57 80h54q31 0 44 -83q37 -229 37 -585q-61 9 -64 91zM382 611q-25 -56 -79 -172q-44 -95 -66 -173q118 39 187 34l-14 153
q-9 82 -28 158zM400 769l-80 32q33 61 69 61q24 0 28 -4l11 -22zM138 742q-16 13 -44 43l8 54h3q10 -1 29 3.5t28 4.5q25 0 35 -13q10 -16 19 -33q-30 -42 -78 -59z" />
    <glyph glyph-name="Aring" unicode="&#xc5;" horiz-adv-x="565" 
d="M436 110v47q0 56 -33 56q-135 0 -198 -76q-45 -54 -80 -198q-20 4 -36.5 24t-16.5 40q0 56 75 259q67 180 108 262q17 33 53 83q49 68 57 80h54q31 0 44 -83q37 -229 37 -585q-61 9 -64 91zM386 611q-25 -56 -79 -172q-44 -95 -66 -173q118 39 187 34l-14 153
q-9 82 -28 158zM343 712q-44 0 -75 24q-35 25 -35 68q0 41 34.5 72t75.5 31q43 0 76.5 -24t33.5 -66q0 -48 -31 -76.5t-79 -28.5zM347 875q-15 0 -44 -31.5t-29 -47.5q0 -17 21.5 -33.5t39.5 -16.5q30 0 58 25t28 55q0 22 -27 37q-23 12 -47 12z" />
    <glyph glyph-name="AE" unicode="&#xc6;" horiz-adv-x="995" 
d="M1019 613q-186 -40 -354 -40q-19 0 -57.5 2t-57.5 2q-59 0 -76 -27q-12 -18 -18 -87q-2 -34 -8 -114q164 22 278 22q64 0 99 -8v-66q-17 -2 -160 -2q-106 0 -159 -32q-66 -40 -82 -142q40 -14 89 -14q56 0 164 20.5t161 21.5q20 -16 36 -45l-33 -31q-64 -10 -249 -37
q-126 -18 -189 -14v-3q-15 3 -28 10q-36 19 -36 61v14q1 10 1 17v53q-5 39 -32 39q-133 0 -195 -76q-45 -55 -79 -199q-19 4 -36 25t-17 40q0 57 74 258q64 175 107 263q17 34 52 83q50 68 56 80q-6 0 18 1h17q39 0 51 -36q170 19 451 19h129q30 0 78 -1h52v-5
q0 -27 -9.5 -36.5t-37.5 -15.5zM291 611q-12 -26 -78 -172q-43 -94 -65 -173q117 39 185 34l-14 153q-9 82 -28 158z" />
    <glyph glyph-name="Ccedilla" unicode="&#xc7;" horiz-adv-x="525" 
d="M428 382q-46 17 -46 59q0 15 5.5 44t5.5 44q0 13 -3 25q4 2 9 8l-6 8q-9 3 -22 3q-139 0 -227 -225q-22 -56 -22 -78q0 -158 196 -158q10 0 175 14q-4 -28 -20 -63q-64 -33 -144 -38q7 -13 7 -21q0 -20 -23 -54q20 -1 53 -10q40 -21 40 -111q0 -71 -107 -71q-25 0 -56 15
q-35 18 -35 40q0 13 9.5 23t22.5 10q9 0 32 -11t37 -11q12 0 31 4q-1 38 -14 61q-19 5 -58 17q-28 12 -28 39q0 16 13 37l21 34q1 2 8 11q-109 15 -176 82q-71 71 -71 178t126.5 239.5t233.5 132.5q99 0 99 -83q0 -65 -66 -194z" />
    <glyph glyph-name="Egrave" unicode="&#xc8;" horiz-adv-x="629" 
d="M626 613q-35 -6 -212 -15q-125 -6 -183 -45q-80 -53 -91 -191q95 13 168 13t124 -12v-67q-18 -2 -162 -2q-109 0 -162 -33q-63 -40 -79 -141q39 -14 89 -14q56 0 164.5 20.5t161.5 21.5q21 -16 36 -45l-33 -31q-83 -14 -250 -37q-109 -15 -147 -15q-49 0 -71 8
q-35 13 -35 51q0 39 80.5 205t80.5 207q0 21 -24 38q-9 7 -39 26v51q32 6 162 39q101 26 164 26h305q1 -34 -15 -49q-4 -4 -32 -9zM376 775q-5 -1 -14 -4q-20 -10 -25 -10q-42 0 -129 60q-90 62 -90 99q0 14 24 14q17 0 40 -8q28 -10 110 -73q85 -66 85 -84q3 1 6 4v4
q-6 -2 -7 -2z" />
    <glyph glyph-name="Eacute" unicode="&#xc9;" horiz-adv-x="628" 
d="M626 613q-35 -6 -212 -15q-125 -6 -183 -45q-80 -53 -91 -191q95 13 168 13t124 -12v-67q-18 -2 -162 -2q-109 0 -162 -33q-63 -40 -79 -141q39 -14 89 -14q56 0 164.5 20.5t161.5 21.5q21 -16 36 -45l-33 -31q-83 -14 -250 -37q-109 -15 -147 -15q-49 0 -71 8
q-35 13 -35 51q0 39 80.5 205t80.5 207q0 21 -24 38q-9 7 -39 26v51q32 6 162 39q101 26 164 26h305q1 -34 -15 -49q-4 -4 -32 -9zM226 761q-5 0 -25 10q-1 1 -11 3q-1 1 -3 1q16 26 89.5 83.5t103.5 67.5q24 8 40 8q25 0 25 -14q0 -37 -91 -99q-87 -60 -128 -60z" />
    <glyph glyph-name="Ecircumflex" unicode="&#xca;" horiz-adv-x="629" 
d="M627 613q-35 -6 -212 -15q-125 -6 -183 -45q-80 -53 -91 -191q95 13 168 13t124 -12v-67q-18 -2 -162 -2q-109 0 -162 -33q-63 -40 -79 -141q39 -14 89 -14q56 0 164.5 20.5t161.5 21.5q21 -16 36 -45l-33 -31q-83 -14 -250 -37q-109 -15 -147 -15q-49 0 -71 8
q-35 13 -35 51q0 39 80.5 205t80.5 207q0 21 -24 38q-9 7 -39 26v51q32 6 162 39q101 26 164 26h305q1 -34 -15 -49q-4 -4 -32 -9zM383 712q-17 0 -45 57q-3 8 -22 47q-12 25 -22 39q-25 -31 -50 -74l-41 -69h-42q-7 0 -7 19q0 11 49 100q30 54 61 109q72 -13 126 -157
q5 -13 19 -54l3 -8q-8 -9 -29 -9z" />
    <glyph glyph-name="Edieresis" unicode="&#xcb;" horiz-adv-x="625" 
d="M623 613q-35 -6 -212 -15q-125 -6 -183 -45q-80 -53 -91 -191q95 13 168 13t124 -12v-67q-18 -2 -162 -2q-109 0 -162 -33q-63 -40 -79 -141q39 -14 89 -14q56 0 164.5 20.5t161.5 21.5q21 -16 36 -45l-33 -31q-83 -14 -250 -37q-109 -15 -147 -15q-49 0 -71 8
q-35 13 -35 51q0 39 80.5 205t80.5 207q0 21 -24 38q-9 7 -39 26v51q32 6 162 39q101 26 164 26h305q1 -34 -15 -49q-4 -4 -32 -9zM477 769l-80 32q33 61 69 61q24 0 28 -4l11 -22zM215 742q-16 13 -44 43l8 54h3q10 -1 29 3.5t28 4.5q25 0 35 -13q10 -16 19 -33
q-30 -42 -78 -59z" />
    <glyph glyph-name="Igrave" unicode="&#xcc;" horiz-adv-x="613" 
d="M387 557q-30 -57 -49 -191q-15 -109 -15 -201q17 -4 137 -20q82 -11 136 -28v-51q-36 5 -77 5q-105 0 -238 -23q-32 -6 -236 -48q-27 32 -33 69q41 21 103 38l107 30q48 180 48 428q-26 -2 -48 -2q-75 0 -145 17v65q235 4 419 4q43 0 114 -36q-37 -27 -107 -39
q-39 -5 -116 -17zM405 775q-5 -1 -14 -4q-20 -10 -25 -10q-42 0 -129 60q-90 62 -90 99q0 14 24 14q17 0 40 -8q28 -10 110 -73q85 -66 85 -84q3 1 6 4v4q-6 -2 -7 -2z" />
    <glyph glyph-name="Iacute" unicode="&#xcd;" horiz-adv-x="600" 
d="M374 557q-30 -57 -49 -191q-15 -109 -15 -201q17 -4 137 -20q82 -11 136 -28v-51q-36 5 -77 5q-105 0 -238 -23q-32 -6 -236 -48q-27 32 -33 69q41 21 103 38l107 30q48 180 48 428q-26 -2 -48 -2q-75 0 -145 17v65q235 4 419 4q43 0 114 -36q-37 -27 -107 -39
q-39 -5 -116 -17zM182 761q-5 0 -25 10q-1 1 -11 3q-1 1 -3 1q16 26 89.5 83.5t103.5 67.5q24 8 40 8q25 0 25 -14q0 -37 -91 -99q-87 -60 -128 -60z" />
    <glyph glyph-name="Icircumflex" unicode="&#xce;" horiz-adv-x="619" 
d="M393 557q-30 -57 -49 -191q-15 -109 -15 -201q17 -4 137 -20q82 -11 136 -28v-51q-36 5 -77 5q-105 0 -238 -23q-32 -6 -236 -48q-27 32 -33 69q41 21 103 38l107 30q48 180 48 428q-26 -2 -48 -2q-75 0 -145 17v65q235 4 419 4q43 0 114 -36q-37 -27 -107 -39
q-39 -5 -116 -17zM367 712q-17 0 -45 57q-3 8 -22 47q-12 25 -22 39q-25 -31 -50 -74l-41 -69h-42q-7 0 -7 19q0 11 49 100q30 54 61 109q72 -13 126 -157q5 -13 19 -54l3 -8q-8 -9 -29 -9z" />
    <glyph glyph-name="Idieresis" unicode="&#xcf;" horiz-adv-x="626" 
d="M400 557q-30 -57 -49 -191q-15 -109 -15 -201q17 -4 137 -20q82 -11 136 -28v-51q-36 5 -77 5q-105 0 -238 -23q-32 -6 -236 -48q-27 32 -33 69q41 21 103 38l107 30q48 180 48 428q-26 -2 -48 -2q-75 0 -145 17v65q235 4 419 4q43 0 114 -36q-37 -27 -107 -39
q-39 -5 -116 -17zM442 769l-80 32q33 61 69 61q24 0 28 -4l11 -22zM180 742q-16 13 -44 43l8 54h3q10 -1 29 3.5t28 4.5q25 0 35 -13q10 -16 19 -33q-30 -42 -78 -59z" />
    <glyph glyph-name="Eth" unicode="&#xd0;" horiz-adv-x="699" 
d="M308 22q-53 0 -136 49.5t-110 96.5q32 0 60 6q17 34 43 88q-47 -17 -63 -17q-12 0 -29 7q-20 9 -28 10v67q64 28 179 63q48 130 48 166q0 2 -1 30q-30 15 -105 17q-4 0 -101 -1v66h143q185 0 301 -78q136 -91 136 -267q0 -135 -103 -221q-97 -82 -234 -82zM362 585
q-11 -41 -63 -172q53 13 75 13q20 0 34 -17q11 -17 22 -33q-72 -36 -176 -80q-47 -114 -47 -154q0 -34 25 -34h130q75 0 144 63t69 138q0 95 -60.5 174.5t-152.5 101.5z" />
    <glyph glyph-name="Ntilde" unicode="&#xd1;" horiz-adv-x="647" 
d="M414 5q-28 70 -46 170l-31 175q-12 65 -36 127q-53 -78 -105 -219q-30 -81 -40 -107q-23 -59 -48 -103h-53q-16 41 -16 58q0 38 156 373q34 73 34 105q0 70 23 70h50q72 -127 128 -348q92 180 113 331q22 6 67 14v-131q0 -28 -82 -239q-73 -189 -114 -276zM531 771
q-16 -85 -60 -85q-33 0 -87 60q-19 22 -71 89l-46 -96h-72l26 51q1 53 71 128q73 -57 90 -72q49 -43 79 -84l40 141l43 -20q-2 -30 -13 -112z" />
    <glyph glyph-name="Ograve" unicode="&#xd2;" horiz-adv-x="513" 
d="M205 20q-63 0 -110.5 51t-47.5 114q0 33 26 124q35 125 83 221q74 149 147 149q81 0 158 -244q16 -51 16 -58q0 -102 -85 -225q-91 -132 -187 -132zM291 562q-51 -55 -110 -184q-62 -135 -62 -202q0 -19 13 -36q3 -5 7 -16h121q50 0 101 113q45 100 45 156q0 83 -115 169
zM416 775q-5 -1 -14 -4q-20 -10 -25 -10q-42 0 -129 60q-90 62 -90 99q0 14 24 14q17 0 40 -8q28 -10 110 -73q85 -66 85 -84q3 1 6 4v4q-6 -2 -7 -2z" />
    <glyph glyph-name="Oacute" unicode="&#xd3;" horiz-adv-x="521" 
d="M213 20q-63 0 -110.5 51t-47.5 114q0 33 26 124q35 125 83 221q74 149 147 149q81 0 158 -244q16 -51 16 -58q0 -102 -85 -225q-91 -132 -187 -132zM299 562q-51 -55 -110 -184q-62 -135 -62 -202q0 -19 13 -36q3 -5 7 -16h121q50 0 101 113q45 100 45 156q0 83 -115 169
zM224 761q-5 0 -25 10q-1 1 -11 3q-1 1 -3 1q16 26 89.5 83.5t103.5 67.5q24 8 40 8q25 0 25 -14q0 -37 -91 -99q-87 -60 -128 -60z" />
    <glyph glyph-name="Ocircumflex" unicode="&#xd4;" horiz-adv-x="521" 
d="M213 20q-63 0 -110.5 51t-47.5 114q0 33 26 124q35 125 83 221q74 149 147 149q81 0 158 -244q16 -51 16 -58q0 -102 -85 -225q-91 -132 -187 -132zM299 562q-51 -55 -110 -184q-62 -135 -62 -202q0 -19 13 -36q3 -5 7 -16h121q50 0 101 113q45 100 45 156q0 83 -115 169
zM340 712q-17 0 -45 57q-3 8 -22 47q-12 25 -22 39q-25 -31 -50 -74l-41 -69h-42q-7 0 -7 19q0 11 49 100q30 54 61 109q72 -13 126 -157q5 -13 19 -54l3 -8q-8 -9 -29 -9z" />
    <glyph glyph-name="Otilde" unicode="&#xd5;" horiz-adv-x="523" 
d="M215 20q-63 0 -110.5 51t-47.5 114q0 33 26 124q35 125 83 221q74 149 147 149q81 0 158 -244q16 -51 16 -58q0 -102 -85 -225q-91 -132 -187 -132zM301 562q-51 -55 -110 -184q-62 -135 -62 -202q0 -19 13 -36q3 -5 7 -16h121q50 0 101 113q45 100 45 156q0 83 -115 169
zM425 771q-16 -85 -60 -85q-33 0 -87 60q-19 22 -71 89l-46 -96h-72l26 51q1 53 71 128q73 -57 90 -72q49 -43 79 -84l40 141l43 -20q-2 -30 -13 -112z" />
    <glyph glyph-name="Odieresis" unicode="&#xd6;" horiz-adv-x="519" 
d="M211 20q-63 0 -110.5 51t-47.5 114q0 33 26 124q35 125 83 221q74 149 147 149q81 0 158 -244q16 -51 16 -58q0 -102 -85 -225q-91 -132 -187 -132zM297 562q-51 -55 -110 -184q-62 -135 -62 -202q0 -19 13 -36q3 -5 7 -16h121q50 0 101 113q45 100 45 156q0 83 -115 169
zM396 769l-80 32q33 61 69 61q24 0 28 -4l11 -22zM134 742q-16 13 -44 43l8 54h3q10 -1 29 3.5t28 4.5q25 0 35 -13q10 -16 19 -33q-30 -42 -78 -59z" />
    <glyph glyph-name="multiply" unicode="&#xd7;" horiz-adv-x="478" 
d="M365 300q-2 -3 -78 -77q27 -79 131 -151v-53h-49q-25 0 -79 58l-72 80l-100 -144h-68l-13 20q7 15 54 89q42 67 42 93q0 39 -82 120q0 -7 -1 19v19q0 32 36 32q28 0 67 -53q24 -40 49 -79q17 18 74 81q40 44 74 66h52q1 -2 11 -15q7 -9 7 -27q0 -24 -55 -78z" />
    <glyph glyph-name="Oslash" unicode="&#xd8;" horiz-adv-x="537" 
d="M527 527q-13 -17 -64 -80q19 -59 19 -70q0 -104 -84 -225q-91 -131 -188 -131q-39 0 -79 26l-59 -71q-22 4 -65 21q-20 22 -20 46q0 5 32 45q12 15 43 53q-6 23 -6 44q0 29 21 107q35 132 82 230q75 157 150 157q56 0 117 -133q39 42 114 127q36 -33 36 -74q0 -9 -49 -72
zM297 562q-48 -52 -99 -163q-45 -97 -67 -180q92 104 244 271q-30 36 -78 72zM196 125h71q47 0 94 103q36 79 51 156q-79 -96 -216 -259z" />
    <glyph glyph-name="Ugrave" unicode="&#xd9;" horiz-adv-x="511" 
d="M351 49q-21 -16 -60 -30q2 18 2 35q0 54 -18 94q-89 -84 -155 -84q-109 0 -109 156q0 86 27 208q31 139 73 190h72v-84q0 -24 -27 -88q-25 -58 -43 -84q-33 -33 -32 -94l1 -103q6 -2 19 -10q8 -4 27 -4q99 0 191 225q32 78 61 175l40 132h51q18 -13 18 -50
q0 -52 -57 -287q-54 -221 -81 -297zM408 775q-5 -1 -14 -4q-20 -10 -25 -10q-42 0 -129 60q-90 62 -90 99q0 14 24 14q17 0 40 -8q28 -10 110 -73q85 -66 85 -84q3 1 6 4v4q-6 -2 -7 -2z" />
    <glyph glyph-name="Uacute" unicode="&#xda;" horiz-adv-x="508" 
d="M351 49q-21 -16 -60 -30q2 18 2 35q0 54 -18 94q-89 -84 -155 -84q-109 0 -109 156q0 86 27 208q31 139 73 190h72v-84q0 -24 -27 -88q-25 -58 -43 -84q-33 -33 -32 -94l1 -103q6 -2 19 -10q8 -4 27 -4q99 0 191 225q32 78 61 175l40 132h51q18 -13 18 -50
q0 -52 -57 -287q-54 -221 -81 -297zM178 761q-5 0 -25 10q-1 1 -11 3q-1 1 -3 1q16 26 89.5 83.5t103.5 67.5q24 8 40 8q25 0 25 -14q0 -37 -91 -99q-87 -60 -128 -60z" />
    <glyph glyph-name="Ucircumflex" unicode="&#xdb;" horiz-adv-x="518" 
d="M351 49q-21 -16 -60 -30q2 18 2 35q0 54 -18 94q-89 -84 -155 -84q-109 0 -109 156q0 86 27 208q31 139 73 190h72v-84q0 -24 -27 -88q-25 -58 -43 -84q-33 -33 -32 -94l1 -103q6 -2 19 -10q8 -4 27 -4q99 0 191 225q32 78 61 175l40 132h51q18 -13 18 -50
q0 -52 -57 -287q-54 -221 -81 -297zM304 712q-17 0 -45 57q-3 8 -22 47q-12 25 -22 39q-25 -31 -50 -74l-41 -69h-42q-7 0 -7 19q0 11 49 100q30 54 61 109q72 -13 126 -157q5 -13 19 -54l3 -8q-8 -9 -29 -9z" />
    <glyph glyph-name="Udieresis" unicode="&#xdc;" horiz-adv-x="512" 
d="M348 49q-21 -16 -60 -30q2 18 2 35q0 54 -18 94q-89 -84 -155 -84q-109 0 -109 156q0 86 27 208q31 139 73 190h72v-84q0 -24 -27 -88q-25 -58 -43 -84q-33 -33 -32 -94l1 -103q6 -2 19 -10q8 -4 27 -4q99 0 191 225q32 78 61 175l40 132h51q18 -13 18 -50
q0 -52 -57 -287q-54 -221 -81 -297zM409 769l-80 32q33 61 69 61q24 0 28 -4l11 -22zM147 742q-16 13 -44 43l8 54h3q10 -1 29 3.5t28 4.5q25 0 35 -13q10 -16 19 -33q-30 -42 -78 -59z" />
    <glyph glyph-name="Yacute" unicode="&#xdd;" horiz-adv-x="506" 
d="M418 446l-87 -203q-52 -121 -73 -227h-69v97q0 50 83 214q-100 75 -296 228v40q0 19 7.5 24.5t27.5 5.5q21 0 135 -88l144 -111l146 247q21 -2 37.5 -16t16.5 -35q0 -8 -72 -176zM167 761q-5 0 -25 10q-1 1 -11 3q-1 1 -3 1q16 26 89.5 83.5t103.5 67.5q24 8 40 8
q25 0 25 -14q0 -37 -91 -99q-87 -60 -128 -60z" />
    <glyph glyph-name="Thorn" unicode="&#xde;" horiz-adv-x="575" 
d="M314 211q-33 -5 -116 -18q-20 -31 -34 -99q-11 -51 -48 -83q-36 31 -36 67q0 35 38 129.5t38 144.5q0 34 -10 77q-22 -6 -40 -24q-6 -6 -24 -27q-69 25 -69 68q0 41 109 74q12 4 43 12q21 32 37 118q12 65 51 99q35 -31 35 -71q0 -25 -12 -59q-4 -12 -27 -67
q60 11 108 11q203 0 203 -158q0 -95 -81 -143q-55 -33 -165 -51z" />
    <glyph glyph-name="germandbls" unicode="&#xdf;" horiz-adv-x="579" 
d="M253 44l-7 83q57 7 80.5 20t60.5 60q21 29 74 101q-27 16 -142 22l23 169q38 30 87 107l-46 2q-15 0 -21 -1q-30 -5 -65 -62q-26 -42 -41 -82q-9 -25 -17 -66q-3 -23 -11 -66t-62 -284q-13 -57 -39 -151q-8 -8 -8 -21.5t-3 -17.5h-50q-2 6 -11 21q-7 10 -7 29
q0 16 19 115q10 54 41 193q22 92 79 335q-29 -13 -64 -37q-16 -11 -51 -32q-15 13 -34 17v51q26 50 162 92q119 37 194 37q119 0 119 -74q0 -53 -133 -185q21 -12 56 -26q49 -19 66 -35q27 -25 27 -68q0 -62 -60 -134q-83 -99 -216 -112z" />
    <glyph glyph-name="agrave" unicode="&#xe0;" horiz-adv-x="507" 
d="M391 17q-60 0 -94 68q-57 -67 -120 -67q-65 0 -106 57q-36 52 -36 119q0 81 62.5 152t142.5 71q72 0 106 -72q25 -53 25 -135q0 -47 -9 -110h99v-50q-30 -33 -70 -33zM249 362q-143 -92 -143 -168q0 -22 41 -86q8 -13 10 -25q34 11 85 65t51 87q0 32 -12 67
q-12 39 -32 60zM336 521q-5 -1 -14 -4q-20 -10 -25 -10q-42 0 -129 60q-90 62 -90 99q0 14 24 14q17 0 40 -8q28 -10 110 -73q85 -66 85 -84q3 1 6 4v4q-6 -2 -7 -2z" />
    <glyph glyph-name="aacute" unicode="&#xe1;" horiz-adv-x="510" 
d="M395 17q-60 0 -94 68q-57 -67 -120 -67q-65 0 -106 57q-36 52 -36 119q0 81 62.5 152t142.5 71q72 0 106 -72q25 -53 25 -135q0 -47 -9 -110h99v-50q-30 -33 -70 -33zM253 362q-143 -92 -143 -168q0 -22 41 -86q8 -13 10 -25q34 11 85 65t51 87q0 32 -12 67
q-12 39 -32 60zM170 497q-5 0 -25 10q-1 1 -11 3q-1 1 -3 1q16 26 89.5 83.5t103.5 67.5q24 8 40 8q25 0 25 -14q0 -37 -91 -99q-87 -60 -128 -60z" />
    <glyph glyph-name="acircumflex" unicode="&#xe2;" horiz-adv-x="509" 
d="M394 17q-60 0 -94 68q-57 -67 -120 -67q-65 0 -106 57q-36 52 -36 119q0 81 62.5 152t142.5 71q72 0 106 -72q25 -53 25 -135q0 -47 -9 -110h99v-50q-30 -33 -70 -33zM252 362q-143 -92 -143 -168q0 -22 41 -86q8 -13 10 -25q34 11 85 65t51 87q0 32 -12 67
q-12 39 -32 60zM245 468q-17 0 -45 57q-3 8 -22 47q-12 25 -22 39q-25 -31 -50 -74l-41 -69h-42q-7 0 -7 19q0 11 49 100q30 54 61 109q72 -13 126 -157q5 -13 19 -54l3 -8q-8 -9 -29 -9z" />
    <glyph glyph-name="atilde" unicode="&#xe3;" horiz-adv-x="489" 
d="M386 17q-60 0 -94 68q-57 -67 -120 -67q-65 0 -106 57q-36 52 -36 119q0 81 62.5 152t142.5 71q72 0 106 -72q25 -53 25 -135q0 -47 -9 -110h99v-50q-30 -33 -70 -33zM244 362q-143 -92 -143 -168q0 -22 41 -86q8 -13 10 -25q34 11 85 65t51 87q0 32 -12 67
q-12 39 -32 60zM370 547q-16 -85 -60 -85q-33 0 -87 60q-19 22 -71 89l-46 -96h-72l26 51q1 53 71 128q73 -57 90 -72q49 -43 79 -84l40 141l43 -20q-2 -30 -13 -112z" />
    <glyph glyph-name="adieresis" unicode="&#xe4;" horiz-adv-x="503" 
d="M388 17q-60 0 -94 68q-57 -67 -120 -67q-65 0 -106 57q-36 52 -36 119q0 81 62.5 152t142.5 71q72 0 106 -72q25 -53 25 -135q0 -47 -9 -110h99v-50q-30 -33 -70 -33zM246 362q-143 -92 -143 -168q0 -22 41 -86q8 -13 10 -25q34 11 85 65t51 87q0 32 -12 67
q-12 39 -32 60zM337 515l-80 32q33 61 69 61q24 0 28 -4l11 -22zM75 488q-16 13 -44 43l8 54h3q10 -1 29 3.5t28 4.5q25 0 35 -13q10 -16 19 -33q-30 -42 -78 -59z" />
    <glyph glyph-name="aring" unicode="&#xe5;" horiz-adv-x="510" 
d="M395 17q-60 0 -94 68q-57 -67 -120 -67q-65 0 -106 57q-36 52 -36 119q0 81 62.5 152t142.5 71q72 0 106 -72q25 -53 25 -135q0 -47 -9 -110h99v-50q-30 -33 -70 -33zM253 362q-143 -92 -143 -168q0 -22 41 -86q8 -13 10 -25q34 11 85 65t51 87q0 32 -12 67
q-12 39 -32 60zM215 460q-44 0 -75 24q-35 25 -35 68q0 41 34.5 72t75.5 31q43 0 76.5 -24t33.5 -66q0 -48 -31 -76.5t-79 -28.5zM219 623q-15 0 -44 -31.5t-29 -47.5q0 -17 21.5 -33.5t39.5 -16.5q30 0 58 25t28 55q0 22 -27 37q-23 12 -47 12z" />
    <glyph glyph-name="ae" unicode="&#xe6;" horiz-adv-x="866" 
d="M623 30q-103 0 -158 20q-31 -33 -69 -33q-59 0 -93 68q-56 -67 -119 -67q-62 0 -103 57q-37 52 -37 119q0 80 62.5 151t141.5 71q97 0 123 -141q32 64 100 110t137 46q29 0 72.5 -28.5t43.5 -55.5v-151q-23 -1 -75 -10q-48 -8 -75 -8q-48 0 -113 33l-14 -15v-34
q28 -46 109 -46q147 0 247 16q5 -18 19 -33q-12 -69 -199 -69zM635 340h-81q-22 -17 -63 -54h144v54zM373 139l-5 -39h26q-10 16 -21 39zM256 361q-142 -91 -142 -167q0 -22 41 -86q8 -13 10 -26q34 12 84.5 66.5t50.5 86.5q0 80 -44 126z" />
    <glyph glyph-name="ccedilla" unicode="&#xe7;" horiz-adv-x="446" 
d="M250 20q2 -11 2 -16q0 -19 -22 -53q11 -2 39 -6q16 -3 25 -12q30 -32 30 -104q0 -71 -108 -71q-26 0 -56 15q-36 17 -36 40q0 13 9.5 23t22.5 10q9 0 32.5 -11t37.5 -11q11 0 31 5q-1 38 -14 60q-30 7 -58.5 18t-28.5 39q0 17 11 34t33 49q-59 20 -103 58q-54 47 -54 99
q0 76 72 162.5t146 86.5q43 0 66 -25q16 -18 33 -63q12 -32 19 -45q-13 -16 -17 -35h-53q-10 11 -23 40t-25 41q-42 -27 -80 -68q-49 -52 -49 -85q0 -34 40 -62q36 -25 72 -25q29 0 68 12l65 20l19 -17v-54q-77 -47 -146 -49z" />
    <glyph glyph-name="egrave" unicode="&#xe8;" horiz-adv-x="529" 
d="M277 18q-116 0 -176 37q-74 47 -74 156q0 81 86 148q80 62 164 62q29 0 71 -28q46 -29 46 -56v-151q-23 -1 -73.5 -9.5t-77.5 -8.5q-49 0 -114 33l-14 -15v-35q28 -45 110 -45q148 0 249 16q6 -18 19 -33q-7 -41 -91 -59q-56 -12 -125 -12zM304 330h-81q-22 -17 -64 -54
h145v54zM371 521q-5 -1 -14 -4q-20 -10 -25 -10q-42 0 -129 60q-90 62 -90 99q0 14 24 14q17 0 40 -8q28 -10 110 -73q85 -66 85 -84q3 1 6 4v4q-6 -2 -7 -2z" />
    <glyph glyph-name="eacute" unicode="&#xe9;" horiz-adv-x="534" 
d="M279 18q-116 0 -176 37q-74 47 -74 156q0 81 86 148q80 62 164 62q29 0 71 -28q46 -29 46 -56v-151q-23 -1 -73.5 -9.5t-77.5 -8.5q-49 0 -114 33l-14 -15v-35q28 -45 110 -45q148 0 249 16q6 -18 19 -33q-7 -41 -91 -59q-56 -12 -125 -12zM306 330h-81q-22 -17 -64 -54
h145v54zM173 487q-5 0 -25 10q-1 1 -11 3q-1 1 -3 1q16 26 89.5 83.5t103.5 67.5q24 8 40 8q25 0 25 -14q0 -37 -91 -99q-87 -60 -128 -60z" />
    <glyph glyph-name="ecircumflex" unicode="&#xea;" horiz-adv-x="534" 
d="M278 18q-116 0 -176 37q-74 47 -74 156q0 81 86 148q80 62 164 62q29 0 71 -28q46 -29 46 -56v-151q-23 -1 -73.5 -9.5t-77.5 -8.5q-49 0 -114 33l-14 -15v-35q28 -45 110 -45q148 0 249 16q6 -18 19 -33q-7 -41 -91 -59q-56 -12 -125 -12zM305 330h-81q-22 -17 -64 -54
h145v54zM278 488q-17 0 -45 57q-3 8 -22 47q-12 25 -22 39q-25 -31 -50 -74l-41 -69h-42q-7 0 -7 19q0 11 49 100q30 54 61 109q72 -13 126 -157q5 -13 19 -54l3 -8q-8 -9 -29 -9z" />
    <glyph glyph-name="edieresis" unicode="&#xeb;" horiz-adv-x="533" 
d="M275 18q-116 0 -176 37q-74 47 -74 156q0 81 86 148q80 62 164 62q29 0 71 -28q46 -29 46 -56v-151q-23 -1 -73.5 -9.5t-77.5 -8.5q-49 0 -114 33l-14 -15v-35q28 -45 110 -45q148 0 249 16q6 -18 19 -33q-7 -41 -91 -59q-56 -12 -125 -12zM302 330h-81q-22 -17 -64 -54
h145v54zM363 515l-80 32q33 61 69 61q24 0 28 -4l11 -22zM101 488q-16 13 -44 43l8 54h3q10 -1 29 3.5t28 4.5q25 0 35 -13q10 -16 19 -33q-30 -42 -78 -59z" />
    <glyph glyph-name="igrave" unicode="&#xec;" horiz-adv-x="273" 
d="M197 102q-6 -26 -13 -77q-46 6 -72 33q-6 32 -6 102q0 219 39 276q13 -4 59 -50v-121q0 -104 -7 -163zM247 491q-5 -1 -14 -4q-20 -10 -25 -10q-42 0 -129 60q-90 62 -90 99q0 14 24 14q17 0 40 -8q28 -10 110 -73q85 -66 85 -84q3 1 6 4v4q-6 -2 -7 -2z" />
    <glyph glyph-name="iacute" unicode="&#xed;" horiz-adv-x="222" 
d="M119 102q-6 -26 -13 -77q-46 6 -72 33q-6 32 -6 102q0 219 39 276q13 -4 59 -50v-121q0 -104 -7 -163zM19 507q-5 0 -25 10q-1 1 -11 3q-1 1 -3 1q16 26 89.5 83.5t103.5 67.5q24 8 40 8q25 0 25 -14q0 -37 -91 -99q-87 -60 -128 -60z" />
    <glyph glyph-name="icircumflex" unicode="&#xee;" horiz-adv-x="245" 
d="M173 102q-6 -26 -13 -77q-46 6 -72 33q-6 32 -6 102q0 219 39 276q13 -4 59 -50v-121q0 -104 -7 -163zM159 478q-17 0 -45 57q-3 8 -22 47q-12 25 -22 39q-25 -31 -50 -74l-41 -69h-42q-7 0 -7 19q0 11 49 100q30 54 61 109q72 -13 126 -157q5 -13 19 -54l3 -8
q-8 -9 -29 -9z" />
    <glyph glyph-name="idieresis" unicode="&#xef;" horiz-adv-x="301" 
d="M225 102q-6 -26 -13 -77q-46 6 -72 33q-6 32 -6 102q0 219 39 276q13 -4 59 -50v-121q0 -104 -7 -163zM279 515l-80 32q33 61 69 61q24 0 28 -4l11 -22zM17 488q-16 13 -44 43l8 54h3q10 -1 29 3.5t28 4.5q25 0 35 -13q10 -16 19 -33q-30 -42 -78 -59z" />
    <glyph glyph-name="eth" unicode="&#xf0;" horiz-adv-x="378" 
d="M258 397q54 -188 54 -226q0 -41 -23 -77q-8 -6 -61 -52q-41 -36 -58 -36q-47 0 -110.5 55t-63.5 101q0 45 65 90q61 41 109 41q19 0 42 -13q-7 29 -25 87q-90 -36 -115 -36q-12 0 -29 7q-20 9 -28 10v67q47 21 142 52q-16 59 -16 76q0 10 -5.5 26.5t-6.5 23.5h67
q10 -25 35 -104q84 24 115 24q19 0 34 -18q11 -16 23 -33q-55 -26 -145 -65zM194 210h-103q1 -36 36 -78q31 -37 67 -55v133z" />
    <glyph glyph-name="ntilde" unicode="&#xf1;" horiz-adv-x="602" 
d="M507 37q-36 0 -45 79q-12 102 -16 117q-20 69 -78 69q-116 0 -159 -194q-3 -24 -13 -70q-39 6 -65 34q-6 25 -42 135q-27 83 -28 137l35 45q57 -31 83 -103q38 43 85 71q56 34 104 34q40 0 107.5 -71.5t67.5 -112.5v-155q0 -15 -36 -15zM425 527q-16 -85 -60 -85
q-33 0 -87 60q-19 22 -71 89l-46 -96h-72l26 51q1 53 71 128q73 -57 90 -72q49 -43 79 -84l40 141l43 -20q-2 -30 -13 -112z" />
    <glyph glyph-name="ograve" unicode="&#xf2;" horiz-adv-x="547" 
d="M270 14q-81 0 -144 52q-67 56 -67 135q0 81 68.5 144t149.5 63q88 0 150 -46q70 -51 70 -136q0 -97 -64.5 -154.5t-162.5 -57.5zM286 334q-28 0 -82.5 -60t-54.5 -89q0 -30 42 -62q39 -29 71 -29q56 0 109 47t53 102q0 42 -52 69q-42 22 -86 22zM376 491q-5 -1 -14 -4
q-20 -10 -25 -10q-42 0 -129 60q-90 62 -90 99q0 14 24 14q17 0 40 -8q28 -10 110 -73q85 -66 85 -84q3 1 6 4v4q-6 -2 -7 -2z" />
    <glyph glyph-name="oacute" unicode="&#xf3;" horiz-adv-x="539" 
d="M272 14q-81 0 -144 52q-67 56 -67 135q0 81 68.5 144t149.5 63q88 0 150 -46q70 -51 70 -136q0 -97 -64.5 -154.5t-162.5 -57.5zM288 334q-28 0 -82.5 -60t-54.5 -89q0 -30 42 -62q39 -29 71 -29q56 0 109 47t53 102q0 42 -52 69q-42 22 -86 22zM178 467q-5 0 -25 10
q-1 1 -11 3q-1 1 -3 1q16 26 89.5 83.5t103.5 67.5q24 8 40 8q25 0 25 -14q0 -37 -91 -99q-87 -60 -128 -60z" />
    <glyph glyph-name="ocircumflex" unicode="&#xf4;" horiz-adv-x="538" 
d="M272 14q-81 0 -144 52q-67 56 -67 135q0 81 68.5 144t149.5 63q88 0 150 -46q70 -51 70 -136q0 -97 -64.5 -154.5t-162.5 -57.5zM288 334q-28 0 -82.5 -60t-54.5 -89q0 -30 42 -62q39 -29 71 -29q56 0 109 47t53 102q0 42 -52 69q-42 22 -86 22zM294 448q-17 0 -45 57
q-3 8 -22 47q-12 25 -22 39q-25 -31 -50 -74l-41 -69h-42q-7 0 -7 19q0 11 49 100q30 54 61 109q72 -13 126 -157q5 -13 19 -54l3 -8q-8 -9 -29 -9z" />
    <glyph glyph-name="otilde" unicode="&#xf5;" horiz-adv-x="557" 
d="M275 14q-81 0 -144 52q-67 56 -67 135q0 81 68.5 144t149.5 63q88 0 150 -46q70 -51 70 -136q0 -97 -64.5 -154.5t-162.5 -57.5zM291 334q-28 0 -82.5 -60t-54.5 -89q0 -30 42 -62q39 -29 71 -29q56 0 109 47t53 102q0 42 -52 69q-42 22 -86 22zM400 537q-16 -85 -60 -85
q-33 0 -87 60q-19 22 -71 89l-46 -96h-72l26 51q1 53 71 128q73 -57 90 -72q49 -43 79 -84l40 141l43 -20q-2 -30 -13 -112z" />
    <glyph glyph-name="odieresis" unicode="&#xf6;" horiz-adv-x="535" 
d="M269 14q-81 0 -144 52q-67 56 -67 135q0 81 68.5 144t149.5 63q88 0 150 -46q70 -51 70 -136q0 -97 -64.5 -154.5t-162.5 -57.5zM285 334q-28 0 -82.5 -60t-54.5 -89q0 -30 42 -62q39 -29 71 -29q56 0 109 47t53 102q0 42 -52 69q-42 22 -86 22zM379 525l-80 32
q33 61 69 61q24 0 28 -4l11 -22zM117 498q-16 13 -44 43l8 54h3q10 -1 29 3.5t28 4.5q25 0 35 -13q10 -16 19 -33q-30 -42 -78 -59z" />
    <glyph glyph-name="oslash" unicode="&#xf8;" horiz-adv-x="574" 
d="M287 16q-54 0 -109 29q-27 -29 -77 -88q-11 1 -22 -8q-4 -3 -6 -3t-6 2q-21 23 -21 46q0 11 76 95q-46 52 -46 112q0 86 72 147q68 57 156 57q48 0 97 -20q32 33 93 99q9 -10 9 -28q0 -47 -22 -76q-4 -4 -25 -29q58 -53 58 -125q0 -96 -64.5 -153t-162.5 -57zM426 274
q-7 9 -28 26q-51 -64 -162 -193q25 -11 46 -11q55 0 107 46.5t52 100.5q0 15 -15 31zM303 333q-28 0 -82.5 -59.5t-54.5 -88.5q0 -14 13 -33q56 53 170 167q-47 14 -46 14z" />
    <glyph glyph-name="ugrave" unicode="&#xf9;" horiz-adv-x="489" 
d="M439 20q-16 4 -50 32q-38 32 -60 32q-20 0 -66.5 -25t-67.5 -25q-72 0 -120 94q-40 79 -40 162q0 96 52 125q39 -34 48 -131q3 -33 3 -146q15 0 43.5 -7.5t42.5 -7.5q52 0 70 117q11 70 9 158l22 12t29 6q19 0 54 -158q0 -1 21 -104q13 -65 27 -99q-14 -16 -17 -35z
M327 501q-5 -1 -14 -4q-20 -10 -25 -10q-42 0 -129 60q-90 62 -90 99q0 14 24 14q17 0 40 -8q28 -10 110 -73q85 -66 85 -84q3 1 6 4v4q-6 -2 -7 -2z" />
    <glyph glyph-name="uacute" unicode="&#xfa;" horiz-adv-x="486" 
d="M436 20q-16 4 -50 32q-38 32 -60 32q-20 0 -66.5 -25t-67.5 -25q-72 0 -120 94q-40 79 -40 162q0 96 52 125q39 -34 48 -131q3 -33 3 -146q15 0 43.5 -7.5t42.5 -7.5q52 0 70 117q11 70 9 158l22 12t29 6q19 0 54 -158q0 -1 21 -104q13 -65 27 -99q-14 -16 -17 -35z
M104 497q-5 0 -25 10q-1 1 -11 3q-1 1 -3 1q16 26 89.5 83.5t103.5 67.5q24 8 40 8q25 0 25 -14q0 -37 -91 -99q-87 -60 -128 -60z" />
    <glyph glyph-name="ucircumflex" unicode="&#xfb;" horiz-adv-x="488" 
d="M439 20q-16 4 -50 32q-38 32 -60 32q-20 0 -66.5 -25t-67.5 -25q-72 0 -120 94q-40 79 -40 162q0 96 52 125q39 -34 48 -131q3 -33 3 -146q15 0 43.5 -7.5t42.5 -7.5q52 0 70 117q11 70 9 158l22 12t29 6q19 0 54 -158q0 -1 21 -104q13 -65 27 -99q-14 -16 -17 -35z
M243 488q-17 0 -45 57q-3 8 -22 47q-12 25 -22 39q-25 -31 -50 -74l-41 -69h-42q-7 0 -7 19q0 11 49 100q30 54 61 109q72 -13 126 -157q5 -13 19 -54l3 -8q-8 -9 -29 -9z" />
    <glyph glyph-name="udieresis" unicode="&#xfc;" horiz-adv-x="498" 
d="M445 20q-16 4 -50 32q-38 32 -60 32q-20 0 -66.5 -25t-67.5 -25q-72 0 -120 94q-40 79 -40 162q0 96 52 125q39 -34 48 -131q3 -33 3 -146q15 0 43.5 -7.5t42.5 -7.5q52 0 70 117q11 70 9 158l22 12t29 6q19 0 54 -158q0 -1 21 -104q13 -65 27 -99q-14 -16 -17 -35z
M317 515l-80 32q33 61 69 61q24 0 28 -4l11 -22zM55 488q-16 13 -44 43l8 54h3q10 -1 29 3.5t28 4.5q25 0 35 -13q10 -16 19 -33q-30 -42 -78 -59z" />
    <glyph glyph-name="yacute" unicode="&#xfd;" horiz-adv-x="542" 
d="M469 172q-21 -77 -82 -328q-18 -4 -34 -18q-46 17 -46 77q0 27 11 80.5t11 80.5q0 10 -2 21q-29 28 -80 69q-60 48 -81 67q-105 93 -112 151q11 18 43 18q25 0 116 -92q14 -15 69 -72q35 -36 54 -52q36 37 59 101q13 37 38 111q23 -4 46 -23q25 -22 25 -43q0 -30 -13 -75
q-8 -24 -22 -73zM177 497q-5 0 -25 10q-1 1 -11 3q-1 1 -3 1q16 26 89.5 83.5t103.5 67.5q24 8 40 8q25 0 25 -14q0 -37 -91 -99q-87 -60 -128 -60z" />
    <glyph glyph-name="thorn" unicode="&#xfe;" horiz-adv-x="518" 
d="M330 86q-17 0 -39 7q11 -60 24 -137q11 -68 11 -123q-46 8 -65 32q-13 16 -25 100q-14 94 -19 112q-9 30 -55 80v5q0 20 8 46q8 22 15 44q5 16 6 34q-12 13 -35 13q-25 0 -78 -14l-34 35q49 56 138 65q-19 102 -20 234q47 -8 66 -32q7 -9 18 -93l14 -106q80 0 118 -10
q50 -13 98 -55v-169q-74 -68 -146 -68zM350 306h-68q-1 -12 -6 -39t-5 -43q0 -27 14 -38h64q27 19 27 53q0 37 -26 67z" />
    <glyph glyph-name="ydieresis" unicode="&#xff;" horiz-adv-x="550" 
d="M471 172q-21 -77 -82 -328q-18 -4 -34 -18q-46 17 -46 77q0 27 11 80.5t11 80.5q0 10 -2 21q-29 28 -80 69q-60 48 -81 67q-105 93 -112 151q11 18 43 18q25 0 116 -92q14 -15 69 -72q35 -36 54 -52q36 37 59 101q13 37 38 111q23 -4 46 -23q25 -22 25 -43q0 -30 -13 -75
q-8 -24 -22 -73zM393 485l-80 32q33 61 69 61q24 0 28 -4l11 -22zM131 458q-16 13 -44 43l8 54h3q10 -1 29 3.5t28 4.5q25 0 35 -13q10 -16 19 -33q-30 -42 -78 -59z" />
    <glyph glyph-name="dotlessi" unicode="&#x131;" horiz-adv-x="208" 
d="M133 102q-6 -26 -13 -77q-46 6 -72 33q-6 32 -6 102q0 219 39 276q13 -4 59 -50v-121q0 -104 -7 -163z" />
    <glyph glyph-name="Scaron" unicode="&#x160;" horiz-adv-x="534" 
d="M478 52q-52 -48 -125 -48q-61 0 -163 57q-98 55 -139 106v67h52q50 -50 108 -90q77 -53 126 -53q36 0 54 30v45q0 31 -52 99q-1 2 -73 92q-126 159 -138 241q31 17 94.5 32.5t98.5 15.5q63 0 92 -13q37 -17 64 -70v-81q-47 14 -61 27t-55 51h-101l-32 -30
q86 -90 162 -211q93 -148 93 -233q0 -19 -5 -34zM348 776q-36 -75 -95 -86q-5 10 -61 110q-49 87 -49 99q0 19 7 19h42q28 -49 91 -143q11 16 22 39q6 13 22 47q28 57 45 57q21 0 29 -9q-24 -72 -53 -133z" />
    <glyph glyph-name="scaron" unicode="&#x161;" horiz-adv-x="519" 
d="M352 15q-65 0 -168 47q-112 51 -135 103q3 1 26 12q13 7 30 7q13 0 72.5 -37t128.5 -37q21 0 57 4q-110 82 -235 238q33 31 95 64q68 37 102 37q28 0 77 -28q51 -31 55 -56q1 -6 1 -20q0 -4 -1 -32h-48q-12 0 -34 26t-39 26q-29 0 -76 -50l127 -97q85 -74 85 -121
q0 -31 -43.5 -58.5t-76.5 -27.5zM348 612q-36 -75 -95 -86q-5 10 -61 110q-49 87 -49 99q0 19 7 19h42q28 -49 91 -143q11 16 22 39q6 13 22 47q28 57 45 57q21 0 29 -9q-24 -72 -53 -133z" />
    <glyph glyph-name="Ydieresis" unicode="&#x178;" horiz-adv-x="505" 
d="M415 446l-87 -203q-52 -121 -73 -227h-69v97q0 50 83 214q-100 75 -296 228v40q0 19 7.5 24.5t27.5 5.5q21 0 135 -88l144 -111l146 247q21 -2 37.5 -16t16.5 -35q0 -8 -72 -176zM378 769l-80 32q33 61 69 61q24 0 28 -4l11 -22zM116 742q-16 13 -44 43l8 54h3
q10 -1 29 3.5t28 4.5q25 0 35 -13q10 -16 19 -33q-30 -42 -78 -59z" />
    <glyph glyph-name="Zcaron" unicode="&#x17d;" horiz-adv-x="747" 
d="M36 21q-34 21 -34 51q0 12 175 221q143 171 214 250q-22 23 -57 23q-32 0 -93 -21t-93 -21h-112q-14 20 -14 48q0 8 1 17q96 53 161 53h322q18 -13 18 -51q0 -40 -310 -396v-28q75 35 148 35h385v-67q-312 -22 -360 -28q-193 -24 -351 -86zM408 776q-36 -75 -95 -86
q-5 10 -61 110q-49 87 -49 99q0 19 7 19h42q28 -49 91 -143q11 16 22 39q6 13 22 47q28 57 45 57q21 0 29 -9q-24 -72 -53 -133z" />
    <glyph glyph-name="zcaron" unicode="&#x17e;" horiz-adv-x="512" 
d="M73 13q-14 10 -17 19q-2 6 -2 25q0 14 96 114l74 77q33 34 51 64h-64q-55 0 -80 -7l-49 -14q-30 0 -60 35v52q36 18 105 18q58 0 133 -14q82 -15 128 -37v-53q-29 -18 -60 -53q-25 -32 -50 -63q-18 -22 -42 -46q57 -14 124 -15h110q6 -22 16 -68q-80 -13 -206 -21z
M271 562q-36 -75 -95 -86q-5 10 -61 110q-49 87 -49 99q0 19 7 19h42q28 -49 91 -143q11 16 22 39q6 13 22 47q28 57 45 57q21 0 29 -9q-24 -72 -53 -133z" />
    <glyph glyph-name="circumflex" unicode="&#x2c6;" horiz-adv-x="282" 
d="M272 712q-17 0 -45 57q-3 8 -22 47q-12 25 -22 39q-25 -31 -50 -74l-41 -69h-42q-7 0 -7 19q0 11 49 100q30 54 61 109q72 -13 126 -157q5 -13 19 -54l3 -8q-8 -9 -29 -9z" />
    <glyph glyph-name="caron" unicode="&#x2c7;" horiz-adv-x="243" 
d="M206 776q-36 -75 -95 -86q-5 10 -61 110q-49 87 -49 99q0 19 7 19h42q28 -49 91 -143q11 16 22 39q6 13 22 47q28 57 45 57q21 0 29 -9q-24 -72 -53 -133z" />
    <glyph glyph-name="ring" unicode="&#x2da;" horiz-adv-x="204" 
d="M109 712q-44 0 -75 24q-35 25 -35 68q0 41 34.5 72t75.5 31q43 0 76.5 -24t33.5 -66q0 -48 -31 -76.5t-79 -28.5zM113 875q-15 0 -44 -31.5t-29 -47.5q0 -17 21.5 -33.5t39.5 -16.5q30 0 58 25t28 55q0 22 -27 37q-23 12 -47 12z" />
    <glyph glyph-name="tilde" unicode="&#x2dc;" horiz-adv-x="326" 
d="M336 771q-16 -85 -60 -85q-33 0 -87 60q-19 22 -71 89l-46 -96h-72l26 51q1 53 71 128q73 -57 90 -72q49 -43 79 -84l40 141l43 -20q-2 -30 -13 -112z" />
    <glyph glyph-name="quoteleft" unicode="&#x2018;" horiz-adv-x="245" 
d="M144 423q-38 0 -67 126q-24 103 -24 167q0 22 10 39q11 21 32 21q25 0 46 -35q17 -29 30 -145q10 -92 10 -158q0 -15 -37 -15z" />
    <glyph glyph-name="quoteright" unicode="&#x2019;" horiz-adv-x="245" 
d="M144 423q-38 0 -67 126q-24 103 -24 167q0 22 10 39q11 21 32 21q25 0 46 -35q17 -29 30 -145q10 -92 10 -158q0 -15 -37 -15z" />
    <glyph glyph-name="quotedblleft" unicode="&#x201c;" horiz-adv-x="432" 
d="M320 423q-36 0 -36 15v55q0 12 -1 32v23q0 91 5 130q13 98 57 98q40 0 40 -60q0 -86 -10 -164q-16 -129 -55 -129zM137 423q-36 0 -64 126q-23 104 -23 167q0 22 9 39q11 21 31 21q23 0 43 -35q17 -30 29 -145q10 -96 10 -158q0 -15 -35 -15z" />
    <glyph glyph-name="quotedblright" unicode="&#x201d;" horiz-adv-x="432" 
d="M320 423q-36 0 -36 15v55q0 12 -1 32v23q0 91 5 130q13 98 57 98q40 0 40 -60q0 -86 -10 -164q-16 -129 -55 -129zM137 423q-36 0 -64 126q-23 104 -23 167q0 22 9 39q11 21 31 21q23 0 43 -35q17 -30 29 -145q10 -96 10 -158q0 -15 -35 -15z" />
    <glyph glyph-name="ellipsis" unicode="&#x2026;" horiz-adv-x="693" 
d="M582 39q-17 10 -49 35v55q11 1 32.5 10t33.5 9q26 0 50 -38q-23 -46 -67 -71zM350 43l-82 18q25 73 65 73q20 0 17 0q6 0 9.5 -7t8.5 -13zM84 24q-17 10 -49 35v55q11 1 32.5 10t33.5 9q26 0 50 -38q-23 -47 -67 -71z" />
    <glyph glyph-name="perthousand" unicode="&#x2030;" horiz-adv-x="964" 
d="M828 29q-121 0 -121 197q0 52 19.5 74t70.5 22q65 0 105 -37.5t40 -102.5q0 -56 -28 -101q-33 -52 -86 -52zM490 32q-39 0 -69 34.5t-30 73.5q0 36 50 112.5t81 76.5q50 0 91 -45.5t41 -95.5q0 -59 -52.5 -107.5t-111.5 -48.5zM218 17q-18 5 -35.5 26.5t-17.5 39.5
q0 23 85 175l109 195q-6 17 -19 17q-34 0 -80 -32q-20 -15 -62 -44q-35 -23 -70 -23q-43 0 -75 29t-32 71q0 40 63.5 109.5t102.5 69.5h112q7 -37 7 -42q0 -12 -9 -24q32 -12 51 -12q18 0 42 15.5t38 15.5h64q17 -13 17 -43q0 -43 -124 -269q-119 -217 -167 -274zM835 244
l-33 -11l13 -95l34 9zM543 228l-50 -82l32 -14l50 84zM198 557l-72 -61l20 -30l73 62z" />
    <glyph glyph-name="guilsinglleft" unicode="&#x2039;" horiz-adv-x="311" 
d="M150 290q30 -46 96 -133q1 -9 7.5 -29.5t6.5 -31.5q0 -20 -33 -19q-10 12 -86 89q-73 74 -94 92q33 81 80 154q62 96 115 118q19 -14 19 -51q0 -22 -47 -93q-21 -32 -64 -96z" />
    <glyph glyph-name="guilsinglright" unicode="&#x203a;" horiz-adv-x="312" 
d="M80 77q-32 -1 -32 19q0 11 6 31.5t7 29.5q28 30 96 133q-20 31 -63 96q-48 73 -48 93q0 37 19 51q55 -22 116 -118q45 -70 79 -154q-24 -22 -94 -92q-74 -74 -86 -89z" />
    <glyph glyph-name="euro" unicode="&#x20ac;" horiz-adv-x="639" 
d="M533 381q-46 17 -46 59q0 15 5.5 44t5.5 44q0 14 -4 26q4 1 10 7l-6 9q-10 3 -22 3q-107 0 -194 -155q56 14 82 14q25 0 57 -50q-79 -39 -188 -84q-5 -17 -5 -35v-17q27 9 99 30q57 16 90 16q20 0 34 -17q11 -17 23 -33q-85 -42 -203 -90q54 -43 152 -43q8 0 174 15
q-4 -28 -20 -63q-72 -39 -156 -39q-141 0 -226 101q-37 -12 -52 -12q-11 0 -29 8t-26 9v67q21 9 60 23l-7 45q-36 -12 -51 -12q-11 0 -29 8t-26 9v67q45 19 132 48q47 96 139 180q106 96 194 96q98 0 98 -83q0 -66 -65 -195z" />
    <glyph glyph-name="glyph196" horiz-adv-x="296" 
 />
    <glyph glyph-name="glyph197" horiz-adv-x="296" 
 />
    </font>
</defs>
</svg>
