<?xml version="1.0" encoding="UTF-8"?>
<svg width="36px" height="44px" viewBox="0 0 36 44" version="1.1" xmlns="http://www.w3.org/2000/svg" xmlns:xlink="http://www.w3.org/1999/xlink">
    <!-- Generator: sketchtool 41 (35326) - http://www.bohemiancoding.com/sketch -->
    <title>F31B205A-9082-4A5A-8BE4-AC03C999524C</title>
    <desc>Created with sketchtool.</desc>
    <defs></defs>
    <g id="Page-1" stroke="none" stroke-width="1" fill="none" fill-rule="evenodd">
        <g id="signature" transform="translate(-154.000000, -442.000000)">
            <g id="Group-2-Copy-2" transform="translate(100.000000, 111.000000)">
                <g id="Group-17" transform="translate(30.000000, 80.000000)">
                    <g id="Group-10" transform="translate(0.000000, 228.000000)">
                        <g id="camera" transform="translate(24.000000, 23.000000)">
                            <path d="M30.7959,30.6406 C34.0099,27.3876 35.9999,22.9226 35.9999,17.9996 C35.9999,8.0746 27.9249,-0.0004 17.9999,-0.0004 C8.0749,-0.0004 -0.0001,8.0746 -0.0001,17.9996 C-0.0001,22.9246 1.9909,27.3896 5.2069,30.6426 C2.4859,32.0956 0.9999,33.9636 0.9999,35.9996 C0.9999,41.0076 9.6439,43.9996 17.9999,43.9996 C26.3569,43.9996 34.9999,41.0076 34.9999,35.9996 C34.9999,33.9596 33.5159,32.0906 30.7959,30.6406" id="Fill-5" fill="#444444"></path>
                            <path d="M18,2 C26.822,2 34,9.178 34,18 C34,22.803 31.862,27.107 28.5,30.043 C28.388,30.109 28.292,30.197 28.211,30.306 C25.438,32.61 21.879,34 18,34 C14.118,34 10.556,32.608 7.782,30.3 C7.706,30.2 7.618,30.119 7.514,30.056 C4.144,27.12 2,22.81 2,18 C2,9.178 9.178,2 18,2" id="Fill-8" fill="#EBEFF2"></path>
                            <path d="M18,42 C9.415,42 3,38.832 3,36 C3,34.643 4.422,33.203 6.816,32.078 C9.891,34.526 13.774,36 18,36 C22.228,36 26.111,34.525 29.187,32.076 C31.579,33.199 33,34.639 33,36 C33,38.832 26.585,42 18,42" id="Fill-10" fill="#FFAB91"></path>
                            <path d="M18,28 C23.51375,28 28,23.51375 28,18 C28,12.48625 23.51375,8 18,8 C12.48625,8 8,12.48625 8,18 C8,23.51375 12.48625,28 18,28" id="Fill-1" fill="#444444"></path>
                            <path d="M18,10 C22.412,10 26,13.588 26,18 C26,22.412 22.412,26 18,26 C13.588,26 10,22.412 10,18 C10,13.588 13.588,10 18,10" id="Fill-3" fill="#C5C9E5"></path>
                            <path d="M22,18 C22,15.7946667 20.2053333,14 18,14 C15.7946667,14 14,15.7946667 14,18 C14,20.2053333 15.7946667,22 18,22 C20.2053333,22 22,20.2053333 22,18 Z" id="Fill-12" fill="#444444"></path>
                            <path d="M15.5,13 C16.8775,13 18,14.1225 18,15.5 C18,16.8775 16.8775,18 15.5,18 C14.1225,18 13,16.8775 13,15.5 C13,14.1225 14.1225,13 15.5,13" id="Fill-14" fill="#FFFFFF"></path>
                        </g>
                    </g>
                </g>
            </g>
        </g>
    </g>
</svg>