<?xml version="1.0" encoding="UTF-8"?>
<svg width="44px" height="44px" viewBox="0 0 44 44" version="1.1" xmlns="http://www.w3.org/2000/svg" xmlns:xlink="http://www.w3.org/1999/xlink">
    <!-- Generator: sketchtool 41 (35326) - http://www.bohemiancoding.com/sketch -->
    <title>F66D4732-C9FB-4704-B770-5CB151B1CA42</title>
    <desc>Created with sketchtool.</desc>
    <defs></defs>
    <g id="Page-1" stroke="none" stroke-width="1" fill="none" fill-rule="evenodd">
        <g id="signature" transform="translate(-150.000000, -342.000000)">
            <g id="Group-2-Copy-2" transform="translate(100.000000, 111.000000)">
                <g id="Group-17" transform="translate(30.000000, 80.000000)">
                    <g id="Group-12" transform="translate(0.000000, 128.000000)">
                        <g id="draw" transform="translate(20.000000, 23.000000)">
                            <path d="M1,42 L27.0722656,42 C34.3815104,42 44,32 44,32 L44,35 C44,35 34.1126302,44 26.6689453,44 L1,44 L1,42 Z" id="Rectangle-155" fill="#F44336"></path>
                            <path d="M43.6978,18.4815 L25.4978,0.2815 C25.1228,-0.0935 24.4588,-0.0935 24.0838,0.2815 C21.1668,3.1985 19.7168,6.6925 19.7268,10.1805 C18.3638,11.1595 11.3748,15.9395 3.6798,16.7945 C3.3768,16.8275 3.1058,16.9985 2.9438,17.2565 C2.7808,17.5145 2.7458,17.8325 2.8468,18.1205 C6.9738,29.8335 0.1838,42.3795 0.1148,42.5045 C0.1048,42.5235 0.1058,42.5435 0.0968,42.5615 C0.0788,42.6015 0.0638,42.6395 0.0508,42.6815 C0.0358,42.7265 0.0258,42.7695 0.0168,42.8165 C0.0098,42.8575 0.0028,42.8955 0.0008,42.9365 C-0.0012,42.9765 0.0008,43.0155 0.0038,43.0565 C0.0078,43.1025 0.0138,43.1465 0.0238,43.1935 C0.0318,43.2335 0.0398,43.2715 0.0528,43.3105 C0.0678,43.3515 0.0878,43.3895 0.1068,43.4285 C0.1178,43.4525 0.1188,43.4775 0.1318,43.5005 C0.1468,43.5255 0.1678,43.5435 0.1848,43.5665 C0.2018,43.5905 0.2188,43.6125 0.2388,43.6345 C0.2498,43.6475 0.2588,43.6625 0.2698,43.6735 C0.2758,43.6805 0.2778,43.6895 0.2838,43.6955 C0.2858,43.6975 0.2878,43.6975 0.2898,43.6995 C0.3748,43.7835 0.4748,43.8445 0.5808,43.8925 C0.6068,43.9045 0.6318,43.9145 0.6578,43.9235 C0.6868,43.9335 0.7128,43.9495 0.7418,43.9565 C0.8238,43.9775 0.9078,43.9885 0.9898,43.9885 L0.9908,43.9885 L0.9908,43.9885 L0.9918,43.9885 C1.0998,43.9885 1.2078,43.9635 1.3138,43.9275 C1.3168,43.9265 1.3208,43.9245 1.3238,43.9235 C1.3518,43.9145 1.3778,43.9025 1.4058,43.8895 C1.4358,43.8755 1.4688,43.8665 1.4988,43.8485 C1.4998,43.8475 1.5018,43.8475 1.5028,43.8465 C1.6168,43.7795 13.0748,37.0805 25.8888,41.1415 C26.1748,41.2315 26.4858,41.1915 26.7358,41.0265 C26.9868,40.8635 27.1518,40.5965 27.1848,40.2985 C28.0138,32.8315 32.5698,25.9885 33.7208,24.3605 C33.7608,24.3615 33.8018,24.3675 33.8418,24.3675 L33.8428,24.3675 C37.3638,24.3675 40.7718,22.8215 43.6978,19.8955 C44.0888,19.5045 44.0888,18.8725 43.6978,18.4815" id="Fill-1" fill="#444444"></path>
                            <path d="M25.356,38.8994 C17.373,36.7094 10.112,38.2534 5.519,39.8754 L14.298,31.0954 C14.371,31.0224 14.417,30.9344 14.462,30.8474 C15.042,31.1914 15.698,31.3874 16.389,31.3874 C17.404,31.3874 18.359,30.9934 19.078,30.2754 C20.56,28.7944 20.56,26.3824 19.078,24.9014 C17.644,23.4654 15.14,23.4654 13.704,24.9014 C12.454,26.1524 12.272,28.0604 13.132,29.5164 C13.045,29.5624 12.957,29.6084 12.884,29.6814 L3.979,38.5864 C5.659,33.8314 7.377,26.2364 5.111,18.6184 C11.715,17.5664 17.5,14.1024 19.951,12.4604 C20.451,15.1194 21.808,17.7014 24.043,19.9354 C26.279,22.1714 28.808,23.5854 31.459,24.1194 C29.789,26.6274 26.389,32.3664 25.356,38.8994" id="Fill-4" fill="#EBEFF2"></path>
                            <path d="M15.1182,26.3154 C15.4582,25.9754 15.9102,25.7884 16.3912,25.7884 C16.8722,25.7884 17.3242,25.9754 17.6632,26.3154 C18.3652,27.0174 18.3652,28.1594 17.6642,28.8604 C16.9832,29.5394 15.7982,29.5424 15.1182,28.8614 C14.4172,28.1604 14.4172,27.0174 15.1182,26.3154" id="Fill-6" fill="#FFFFFF"></path>
                            <path d="M33.8413,22.3677 C30.8723,22.3677 27.9723,21.0377 25.4563,18.5217 C20.6753,13.7407 20.4633,7.3777 24.8133,2.4257 L41.5553,19.1677 C39.1913,21.2647 36.5413,22.3677 33.8413,22.3677" id="Fill-8" fill="#C5C9E5"></path>
                        </g>
                    </g>
                </g>
            </g>
        </g>
    </g>
</svg>