<?xml version="1.0" encoding="UTF-8"?>
<svg width="45px" height="44px" viewBox="0 0 45 44" version="1.1" xmlns="http://www.w3.org/2000/svg" xmlns:xlink="http://www.w3.org/1999/xlink">
    <!-- Generator: sketchtool 41 (35326) - http://www.bohemiancoding.com/sketch -->
    <title>38FBF48D-335C-4563-859F-BD5F2D14987E</title>
    <desc>Created with sketchtool.</desc>
    <defs>
        <path d="M21,18 L3,18 C1.346,18 0,16.654 0,15 L0,3 C0,1.346 1.346,0 3,0 L21,0 C22.654,0 24,1.346 24,3 L24,15 C24,16.654 22.654,18 21,18 L21,18 Z" id="path-1"></path>
        <mask id="mask-2" maskContentUnits="userSpaceOnUse" maskUnits="objectBoundingBox" x="-1" y="-1" width="26" height="20">
            <rect x="-1" y="-1" width="26" height="20" fill="white"></rect>
            <use xlink:href="#path-1" fill="black"></use>
        </mask>
    </defs>
    <g id="Page-1" stroke="none" stroke-width="1" fill="none" fill-rule="evenodd">
        <g id="signature" transform="translate(-499.000000, -542.000000)">
            <g id="Group-2-Copy-2" transform="translate(100.000000, 111.000000)">
                <g id="Group-17" transform="translate(30.000000, 80.000000)">
                    <g id="Group-14" transform="translate(350.000000, 328.000000)">
                        <g id="email-mobile" transform="translate(20.000000, 23.000000)">
                            <path d="M12,2.00492334 C12,0.897634756 12.8892617,0 14.0017433,0 L41.9982567,0 C43.103789,0 44,0.898855112 44,2.00492334 L44,41.9950767 C44,43.1023652 43.1107383,44 41.9982567,44 L14.0017433,44 C12.896211,44 12,43.1011449 12,41.9950767 L12,2.00492334 Z" id="Path" fill="#444444"></path>
                            <polygon id="Path" fill="#CFD8DC" points="14 2 42 2 42 42 14 42"></polygon>
                            <polygon id="Rectangle-222" fill="#444444" points="26 3 30 3 30 4 26 4"></polygon>
                            <rect id="Rectangle-215" fill="#444444" x="16" y="5" width="24" height="29"></rect>
                            <rect id="Rectangle-215-Copy" fill="#FFFFFF" x="18" y="7" width="20" height="25"></rect>
                            <path d="M29.1419868,13.0835387 C29.2026462,12.7972489 30.6063601,11.371117 33.7129802,11.2085387 C30.4326563,10.5150954 27.6497453,11.6561721 27.9992384,13.0835387 C27.6518318,16.5072463 33.9103823,18.4153184 33.7129802,18.7085387 C33.9103823,23.3554188 24.1730625,20.7873541 20,26.2085387 C24.6946954,21.9284309 35.7799143,25.3413888 35.9984769,18.7085387 C36.1174108,16.4764296 29.2318576,15.3653136 29.1419868,13.0835387" id="Path" fill="#F44336"></path>
                            <circle id="Oval-3" fill="#444444" cx="28" cy="38" r="3"></circle>
                            <circle id="Oval-3" fill="#FFFFFF" cx="28" cy="38" r="1"></circle>
                            <g id="email" transform="translate(0.000000, 13.000000)">
                                <g id="Shape">
                                    <use fill="#444444" fill-rule="evenodd" xlink:href="#path-1"></use>
                                    <use stroke="#FFFFFF" mask="url(#mask-2)" stroke-width="2" xlink:href="#path-1"></use>
                                </g>
                                <polygon id="Path" fill="#FFECB3" points="20.307 2 3.693 2 12 8.715"></polygon>
                                <path d="M3,16 L21,16 C21.551,16 22,15.551 22,15 L22,3.203 L12.628,10.778 C12.445,10.926 12.223,11 12,11 C11.777,11 11.555,10.926 11.372,10.778 L2,3.203 L2,15 C2,15.551 2.449,16 3,16 L3,16 Z" id="Path" fill="#FFECB3"></path>
                                <path d="M1.5,15.5 L9.01664829,7.98335183" id="Line" stroke="#444444" stroke-width="2" stroke-linecap="square"></path>
                                <path d="M14.5,15.5 L22.0166483,7.98335183" id="Line-Copy" stroke="#444444" stroke-width="2" stroke-linecap="square" transform="translate(18.500000, 11.500000) scale(-1, 1) translate(-18.500000, -11.500000) "></path>
                            </g>
                        </g>
                    </g>
                </g>
            </g>
        </g>
    </g>
</svg>