<?xml version="1.0" encoding="UTF-8"?>
<svg width="32px" height="44px" viewBox="0 0 32 44" version="1.1" xmlns="http://www.w3.org/2000/svg" xmlns:xlink="http://www.w3.org/1999/xlink">
    <!-- Generator: sketchtool 41 (35326) - http://www.bohemiancoding.com/sketch -->
    <title>1F88FA5E-70B1-4E8F-9F73-2810B24F9CCB</title>
    <desc>Created with sketchtool.</desc>
    <defs></defs>
    <g id="Page-1" stroke="none" stroke-width="1" fill="none" fill-rule="evenodd">
        <g id="signature" transform="translate(-506.000000, -440.000000)">
            <g id="Group-2-Copy-2" transform="translate(100.000000, 111.000000)">
                <g id="Group-17" transform="translate(30.000000, 80.000000)">
                    <g id="Group-11" transform="translate(350.000000, 228.000000)">
                        <g id="qr-mobile" transform="translate(26.000000, 21.000000)">
                            <path d="M0,2.00492334 C0,0.897634756 0.889261723,0 2.00174332,0 L29.9982567,0 C31.103789,0 32,0.898855112 32,2.00492334 L32,41.9950767 C32,43.1023652 31.1107383,44 29.9982567,44 L2.00174332,44 C0.89621101,44 0,43.1011449 0,41.9950767 L0,2.00492334 Z" id="Path" fill="#444444"></path>
                            <polygon id="Path" fill="#CFD8DC" points="2 2 30 2 30 42 2 42"></polygon>
                            <polygon id="Rectangle-222" fill="#444444" points="14 3 18 3 18 4 14 4"></polygon>
                            <rect id="Rectangle-215" fill="#444444" x="4" y="5" width="24" height="29"></rect>
                            <rect id="Rectangle-215-Copy" fill="#FFFFFF" x="6" y="7" width="20" height="25"></rect>
                            <path d="M9,12 L14,12 L14,17 L9,17 L9,12 Z M10,13 L13,13 L13,16 L10,16 L10,13 Z M11,14 L12,14 L12,15 L11,15 L11,14 Z M9,21 L14,21 L14,26 L9,26 L9,21 Z M9,18 L10,18 L10,20 L9,20 L9,18 Z M10,18 L11,18 L11,19 L10,19 L10,18 Z M11,19 L12,19 L12,20 L11,20 L11,19 Z M13,18 L14,18 L14,19 L13,19 L13,18 Z M15,14 L16,14 L16,15 L15,15 L15,14 Z M16,12 L17,12 L17,13 L16,13 L16,12 Z M17,19 L18,19 L18,20 L17,20 L17,19 Z M20,18 L21,18 L21,19 L20,19 L20,18 Z M22,18 L23,18 L23,19 L22,19 L22,18 Z M21,19 L22,19 L22,20 L21,20 L21,19 Z M18,21 L19,21 L19,22 L18,22 L18,21 Z M19,22 L20,22 L20,23 L19,23 L19,22 Z M18,23 L19,23 L19,24 L18,24 L18,23 Z M19,24 L20,24 L20,25 L19,25 L19,24 Z M18,25 L19,25 L19,26 L18,26 L18,25 Z M17,25 L18,25 L18,26 L17,26 L17,25 Z M15,25 L16,25 L16,26 L15,26 L15,25 Z M22,23 L23,23 L23,24 L22,24 L22,23 Z M21,22 L22,22 L22,23 L21,23 L21,22 Z M22,25 L23,25 L23,26 L22,26 L22,25 Z M12,18 L13,18 L13,20 L12,20 L12,18 Z M14,18 L15,18 L15,20 L14,20 L14,18 Z M15,16 L16,16 L16,18 L15,18 L15,16 Z M16,17 L17,17 L17,19 L16,19 L16,17 Z M15,19 L16,19 L16,21 L15,21 L15,19 Z M16,20 L17,20 L17,22 L16,22 L16,20 Z M15,22 L16,22 L16,24 L15,24 L15,22 Z M16,23 L17,23 L17,25 L16,25 L16,23 Z M17,22 L18,22 L18,24 L17,24 L17,22 Z M18,18 L19,18 L19,20 L18,20 L18,18 Z M19,19 L20,19 L20,21 L19,21 L19,19 Z M20,20 L21,20 L21,22 L20,22 L20,20 Z M22,20 L23,20 L23,22 L22,22 L22,20 Z M20,23 L21,23 L21,26 L20,26 L20,23 Z M16,14 L17,14 L17,16 L16,16 L16,14 Z M15,12 L16,12 L16,14 L15,14 L15,12 Z M10,22 L13,22 L13,25 L10,25 L10,22 Z M11,23 L12,23 L12,24 L11,24 L11,23 Z M18,12 L23,12 L23,17 L18,17 L18,12 Z M19,13 L22,13 L22,16 L19,16 L19,13 Z M20,14 L21,14 L21,15 L20,15 L20,14 Z" id="Combined-Shape" fill="#F44336"></path>
                            <circle id="Oval-3" fill="#444444" cx="16" cy="38" r="3"></circle>
                            <circle id="Oval-3" fill="#FFFFFF" cx="16" cy="38" r="1"></circle>
                        </g>
                    </g>
                </g>
            </g>
        </g>
    </g>
</svg>