<?xml version="1.0" encoding="UTF-8"?>
<svg width="34px" height="40px" viewBox="0 0 34 40" version="1.1" xmlns="http://www.w3.org/2000/svg" xmlns:xlink="http://www.w3.org/1999/xlink">
    <!-- Generator: sketchtool 41 (35326) - http://www.bohemiancoding.com/sketch -->
    <title>BD91719E-B12C-4F81-80DC-F5B42FD7E188</title>
    <desc>Created with sketchtool.</desc>
    <defs></defs>
    <g id="Page-1" stroke="none" stroke-width="1" fill="none" fill-rule="evenodd">
        <g id="signature" transform="translate(-153.000000, -219.000000)">
            <g id="Group-2-Copy-2" transform="translate(100.000000, 111.000000)">
                <g id="Group-17" transform="translate(30.000000, 80.000000)">
                    <g id="Group-19">
                        <g id="Group-22" transform="translate(22.000000, 28.000000)">
                            <g id="type" transform="translate(1.000000, 0.000000)">
                                <path d="M13,6 L13,34 L12.0010434,34 C10.8958977,34 10,34.8982606 10,35.9979131 L10,38.0020869 C10,39.1055038 10.8970601,40 12.0058587,40 L21.9941413,40 C23.1019465,40 24,39.1017394 24,38.0020869 L24,35.9979131 C24,34.8944962 23.0999011,34 21.9989566,34 L21,34 L21,6 L28,6 L28,8.9951185 C28,10.102384 28.8982606,11 29.9979131,11 L32.0020869,11 C33.1055038,11 34,10.1017394 34,9.00208688 L34,5 L34,2.0048815 C34,0.897616023 33.1080589,0 32.0000796,0 L1.9999204,0 C0.895394863,0 0,0.893899798 0,2.0048815 L0,5 L0,9.00208688 C0,10.1055038 0.898260623,11 1.99791312,11 L4.00208688,11 C5.10550383,11 6,10.1061002 6,8.9951185 L6,6 L13,6 Z" id="Combined-Shape" fill="#444444"></path>
                                <polygon id="Combined-Shape" fill="#C8E7C9" points="19 4 30 4 30 9 32 9 32 3 32 2 2 2 2 3 2 9 4 9 4 4 15 4 15 36 12 36 12 38 22 38 22 36 19 36"></polygon>
                            </g>
                        </g>
                    </g>
                </g>
            </g>
        </g>
    </g>
</svg>