<?xml version="1.0" encoding="UTF-8"?>
<svg width="32px" height="32px" viewBox="0 0 32 32" version="1.1" xmlns="http://www.w3.org/2000/svg" xmlns:xlink="http://www.w3.org/1999/xlink">
    <!-- Generator: sketchtool 41 (35326) - http://www.bohemiancoding.com/sketch -->
    <title>47AA2595-63BA-492F-9413-BCCDB14CCE4E</title>
    <desc>Created with sketchtool.</desc>
    <defs></defs>
    <g id="Page-1" stroke="none" stroke-width="1" fill="none" fill-rule="evenodd">
        <g id="signature" transform="translate(-120.000000, -125.000000)">
            <g id="Group-2-Copy-2" transform="translate(100.000000, 111.000000)">
                <g id="gallery-signature" transform="translate(20.000000, 14.000000)">
                    <path d="M4,5.99124431 C4,4.89151044 4.89989752,4 5.99124431,4 L30.0087557,4 C31.1084896,4 32,4.89989752 32,5.99124431 L32,30.0087557 C32,31.1084896 31.1001025,32 30.0087557,32 L5.99124431,32 C4.89151044,32 4,31.1001025 4,30.0087557 L4,5.99124431 Z" id="Rectangle-1563" fill="#444444"></path>
                    <rect id="Rectangle-1563" fill="#FAFAFA" x="6" y="6" width="24" height="24"></rect>
                    <path d="M0,1.99124431 C0,0.891510444 0.899897516,0 1.99124431,0 L26.0087557,0 C27.1084896,0 28,0.899897516 28,1.99124431 L28,26.0087557 C28,27.1084896 27.1001025,28 26.0087557,28 L1.99124431,28 C0.891510444,28 0,27.1001025 0,26.0087557 L0,1.99124431 Z" id="Rectangle-1563" fill="#444444"></path>
                    <rect id="Rectangle-1563" fill="#FAFAFA" x="2" y="2" width="24" height="24"></rect>
                    <path d="M22.1818182,17.8116364 L13.2661818,17.8116364 C13.5476364,16.8894545 13.8007273,15.8930909 14.0349091,14.8741818 C14.6603636,14.448 15.2749091,14.0989091 15.8014545,13.8901818 C16.2356364,13.7185455 16.4545455,13.7054545 16.5374545,13.7054545 C16.5636364,13.7054545 16.576,13.7076364 16.5774545,13.7047273 C16.5934545,13.7454545 16.7527273,14.2436364 15.8356364,16.0763636 C15.6305455,16.4872727 15.6712727,16.7890909 15.9570909,16.9745455 C16.4029091,17.2632727 16.6109091,17.0109091 17.3847273,16.0669091 C17.9083636,15.4283636 18.784,14.3585455 19.2181818,14.0647273 C19.68,13.7534545 19.9461818,13.7418182 20.0029091,13.7883636 C20.1083636,13.8705455 20.216,14.3789091 19.8530909,15.3490909 C19.7476364,15.632 19.8916364,15.9454545 20.1730909,16.0516364 C20.4574545,16.1578182 20.7694545,16.0123636 20.8749091,15.7316364 C21.36,14.4327273 21.288,13.4116364 20.6778182,12.9309091 C20.3789091,12.696 19.7141818,12.4123636 18.6072727,13.1607273 C18.3461818,13.3374545 18.0356364,13.6392727 17.688,14.0218182 C17.7185455,13.5672727 17.6167273,13.2232727 17.3854545,12.9716364 C16.792,12.3236364 15.7432727,12.7389091 15.4,12.8756364 C15.088,12.9992727 14.7374545,13.1738182 14.3643636,13.3883636 C14.4494545,12.9941818 14.5323636,12.6014545 14.6152727,12.2123636 C14.648,12.0574545 14.68,11.904 14.7127273,11.7512727 C15.6145455,11.2778182 16.3810909,10.7418182 16.76,10.2356364 C18.3258182,8.14836364 18.1454545,7.008 17.8989091,6.51490909 C17.6807273,6.07854545 17.2538182,5.81818182 16.7570909,5.81818182 C15.9970909,5.81818182 15.2414545,6.38472727 14.7854545,7.29672727 C14.4283636,8.01090909 14.1061818,9.37309091 13.7556364,11.0058182 C12.4727273,11.6116364 10.976,12.0865455 10.1818182,12.0865455 C9.88072727,12.0865455 9.63636364,12.3309091 9.63636364,12.632 C9.63636364,12.9330909 9.88072727,13.1774545 10.1818182,13.1774545 C10.9876364,13.1774545 12.2516364,12.8334545 13.4741818,12.3287273 C13.3461818,12.9323636 13.208,13.5796364 13.0581818,14.2392727 C11.5985455,15.2916364 10.1214545,16.6843636 9.48218182,17.8116364 L5.45454545,17.8116364 C5.25381818,17.8116364 5.09090909,17.9745455 5.09090909,18.1752727 C5.09090909,18.376 5.25381818,18.5389091 5.45454545,18.5389091 L9.11418182,18.5389091 C8.67636364,19.5003636 8.07345455,21.1694545 8.69236364,22.0189091 C8.86181818,22.2516364 9.17163636,22.5003636 9.71781818,22.5003636 C9.83636364,22.5003636 9.96581818,22.4887273 10.1069091,22.4625455 C11.3963636,22.2254545 12.3105455,20.6487273 13.0312727,18.5381818 L22.1818182,18.5381818 C22.3825455,18.5381818 22.5454545,18.3752727 22.5454545,18.1745455 C22.5454545,17.9738182 22.3825455,17.8116364 22.1818182,17.8116364 L22.1818182,17.8116364 Z M15.7607273,7.78472727 C16.0610909,7.184 16.488,6.90981818 16.7563636,6.90981818 C16.8661818,6.90981818 16.8989091,6.95563636 16.9229091,7.00363636 C17.0567273,7.27054545 16.9883636,8.11345455 15.8865455,9.58181818 C15.7134545,9.81309091 15.4094545,10.0632727 15.0247273,10.3127273 C15.2778182,9.19272727 15.5229091,8.26109091 15.7607273,7.78472727 L15.7607273,7.78472727 Z M12.6545455,15.9250909 C12.488,16.576 12.3105455,17.2130909 12.1207273,17.8116364 L10.7905455,17.8116364 C11.2443636,17.2196364 11.9127273,16.5505455 12.6545455,15.9250909 L12.6545455,15.9250909 Z M9.90981818,21.3905455 C9.69818182,21.4298182 9.59345455,21.4029091 9.57454545,21.3767273 C9.37454545,21.1018182 9.66472727,19.8218182 10.3287273,18.5389091 L11.8763636,18.5389091 C11.3207273,20.0945455 10.6705455,21.2509091 9.90981818,21.3905455 L9.90981818,21.3905455 Z" id="Shape" fill="#2196F3"></path>
                    <path d="M5.19718199,15.8932727 C5.26845472,15.9638182 5.36154563,15.9994545 5.45463654,15.9994545 C5.54772745,15.9994545 5.64081836,15.9638182 5.71209108,15.8932727 L6.54554563,15.0590909 L7.37900017,15.8925455 C7.4502729,15.9638182 7.54336381,15.9994545 7.63645472,15.9994545 C7.72954563,15.9994545 7.82263654,15.9638182 7.89390927,15.8932727 C8.03572745,15.7514545 8.03572745,15.5209091 7.89390927,15.3790909 L7.05972745,14.5449091 L7.89318199,13.7114545 C8.03500017,13.5696364 8.03500017,13.3390909 7.89318199,13.1972727 C7.75136381,13.0554545 7.52081836,13.0554545 7.37900017,13.1972727 L6.54554563,14.0307273 L5.71209108,13.1972727 C5.5702729,13.0554545 5.33972745,13.0554545 5.19790927,13.1972727 C5.05609108,13.3390909 5.05609108,13.5696364 5.19790927,13.7114545 L6.03136381,14.5449091 L5.19790927,15.3783636 C5.05536381,15.5209091 5.05536381,15.7507273 5.19718199,15.8932727 L5.19718199,15.8932727 Z" id="Shape" fill="#2196F3"></path>
                </g>
            </g>
        </g>
    </g>
</svg>