<svg xmlns="http://www.w3.org/2000/svg" xmlns:xlink="http://www.w3.org/1999/xlink"><defs><path d="M21 18H3c-1.654 0-3-1.346-3-3V3c0-1.654 1.346-3 3-3h18c1.654 0 3 1.346 3 3v12c0 1.654-1.346 3-3 3z" id="email-mobile-a"/><mask id="email-mobile-b" x="-1" y="-1" width="26" height="20"><path fill="#fff" d="M-1-1h26v20H-1z"/><use xlink:href="#email-mobile-a"/></mask><path d="M22 17H9.48l-3.699 4.625A1 1 0 0 1 4 21v-4H2c-1.103 0-2-.897-2-2V2C0 .897.897 0 2 0h20c1.103 0 2 .897 2 2v13c0 1.103-.897 2-2 2z" id="sms-mobile-a"/><mask id="sms-mobile-b" x="-1" y="-1" width="26" height="24"><path fill="#fff" d="M-1-1h26v24H-1z"/><use xlink:href="#sms-mobile-a"/></mask><path d="M33 34H9.35C4.193 34 0 29.649 0 24.297c0-3.922 2.257-7.414 5.69-8.921-.046-.441-.068-.87-.068-1.296C5.622 6.316 11.709 0 19.189 0c5.518 0 10.476 3.49 12.552 8.758h.097C38.544 8.757 44 14.418 44 21.378 44 27.651 40.221 34 33 34z" id="upload-a"/><mask id="upload-b" x="0" y="0" width="44" height="34" fill="#fff"><use xlink:href="#upload-a"/></mask></defs><symbol id="camera" viewBox="0 0 36 44"><title>F31B205A-9082-4A5A-8BE4-AC03C999524C</title><g fill="none" fill-rule="evenodd"><path d="M30.796 30.64C34.01 27.389 36 22.924 36 18c0-9.925-8.075-18-18-18S0 8.075 0 18c0 4.925 1.99 9.39 5.207 12.643C2.486 32.096 1 33.963 1 36c0 5.008 8.644 8 17 8 8.357 0 17-2.992 17-8 0-2.04-1.484-3.91-4.204-5.36" fill="#444"/><path d="M18 2c8.822 0 16 7.178 16 16 0 4.803-2.138 9.107-5.5 12.043a.976.976 0 0 0-.289.263A15.929 15.929 0 0 1 18 34a15.927 15.927 0 0 1-10.218-3.7.956.956 0 0 0-.268-.244C4.144 27.12 2 22.81 2 18 2 9.178 9.178 2 18 2" fill="#EBEFF2"/><path d="M18 42c-8.585 0-15-3.168-15-6 0-1.357 1.422-2.797 3.816-3.922A17.899 17.899 0 0 0 18 36c4.228 0 8.111-1.475 11.187-3.924C31.579 33.199 33 34.639 33 36c0 2.832-6.415 6-15 6" fill="#FFAB91"/><path d="M18 28c5.514 0 10-4.486 10-10S23.514 8 18 8 8 12.486 8 18s4.486 10 10 10" fill="#444"/><path d="M18 10c4.412 0 8 3.588 8 8s-3.588 8-8 8-8-3.588-8-8 3.588-8 8-8" fill="#C5C9E5"/><path d="M22 18c0-2.205-1.795-4-4-4s-4 1.795-4 4 1.795 4 4 4 4-1.795 4-4z" fill="#444"/><path d="M15.5 13c1.378 0 2.5 1.123 2.5 2.5 0 1.378-1.122 2.5-2.5 2.5a2.504 2.504 0 0 1-2.5-2.5c0-1.377 1.123-2.5 2.5-2.5" fill="#FFF"/></g></symbol><symbol id="draw" viewBox="0 0 44 44"><title>F66D4732-C9FB-4704-B770-5CB151B1CA42</title><g fill="none" fill-rule="evenodd"><path d="M1 42h26.072C34.382 42 44 32 44 32v3s-9.887 9-17.331 9H1v-2z" fill="#F44336"/><path d="M43.698 18.482l-18.2-18.2a1.03 1.03 0 0 0-1.414 0c-2.917 2.917-4.367 6.41-4.357 9.899-1.363.979-8.352 5.759-16.047 6.614a.998.998 0 0 0-.833 1.325C6.974 29.834.184 42.38.115 42.505c-.01.02-.01.04-.018.058a1.023 1.023 0 0 0-.08.255c-.007.04-.014.078-.016.12a.967.967 0 0 0 .023.257c.008.04.016.078.029.116.015.041.035.08.054.118.01.025.012.05.025.073.015.025.036.043.053.066a.7.7 0 0 0 .054.068c.01.013.02.028.03.038.007.008.009.017.015.023l.006.004a.985.985 0 0 0 .368.223c.029.01.055.026.084.033.082.021.166.032.248.032h.002c.108 0 .216-.024.322-.06l.01-.005a.711.711 0 0 0 .082-.034c.03-.014.063-.023.093-.04 0-.002.003-.002.004-.002.114-.068 11.572-6.767 24.386-2.706a1 1 0 0 0 1.296-.843c.829-7.467 5.385-14.31 6.536-15.938.04.002.08.008.12.008h.002c3.52 0 6.929-1.546 9.855-4.473a.999.999 0 0 0 0-1.413" fill="#444"/><path d="M25.356 38.9c-7.983-2.19-15.244-.647-19.837.975l8.779-8.78a.954.954 0 0 0 .164-.248 3.764 3.764 0 0 0 4.616-.572 3.804 3.804 0 0 0 0-5.374c-1.434-1.436-3.938-1.436-5.374 0-1.25 1.251-1.432 3.16-.572 4.615-.087.046-.175.092-.248.165l-8.905 8.905c1.68-4.755 3.398-12.35 1.132-19.968 6.604-1.052 12.389-4.516 14.84-6.158.5 2.66 1.857 5.241 4.092 7.475 2.236 2.236 4.765 3.65 7.416 4.184-1.67 2.508-5.07 8.247-6.103 14.78" fill="#EBEFF2"/><path d="M15.118 26.315c.34-.34.792-.527 1.273-.527a1.802 1.802 0 0 1 1.273 3.072c-.68.68-1.866.682-2.546.001a1.804 1.804 0 0 1 0-2.546" fill="#FFF"/><path d="M33.841 22.368c-2.969 0-5.869-1.33-8.385-3.846-4.78-4.781-4.993-11.144-.643-16.096l16.742 16.742c-2.364 2.097-5.014 3.2-7.714 3.2" fill="#C5C9E5"/></g></symbol><symbol id="email-mobile" viewBox="0 0 45 44"><title>38FBF48D-335C-4563-859F-BD5F2D14987E</title><g transform="translate(1)" fill="none" fill-rule="evenodd"><path d="M12 2.005C12 .898 12.89 0 14.002 0h27.996C43.104 0 44 .899 44 2.005v39.99C44 43.102 43.11 44 41.998 44H14.002A2.004 2.004 0 0 1 12 41.995V2.005z" fill="#444"/><path fill="#CFD8DC" d="M14 2h28v40H14z"/><path fill="#444" d="M26 3h4v1h-4zM16 5h24v29H16z"/><path fill="#FFF" d="M18 7h20v25H18z"/><path d="M29.142 13.084c.06-.287 1.464-1.713 4.571-1.875-3.28-.694-6.063.447-5.714 1.875-.347 3.423 5.911 5.331 5.714 5.625.197 4.646-9.54 2.078-13.713 7.5 4.695-4.28 15.78-.868 15.998-7.5.12-2.233-6.766-3.344-6.856-5.625" fill="#F44336"/><circle fill="#444" cx="28" cy="38" r="3"/><circle fill="#FFF" cx="28" cy="38" r="1"/><g transform="translate(0 13)"><use fill="#444" xlink:href="#email-mobile-a"/><use stroke="#FFF" mask="url(#email-mobile-b)" stroke-width="2" xlink:href="#email-mobile-a"/></g><path fill="#FFECB3" d="M20.307 15H3.693L12 21.715z"/><path d="M3 29h18c.551 0 1-.449 1-1V16.203l-9.372 7.575a.996.996 0 0 1-1.256 0L2 16.203V28c0 .551.449 1 1 1z" fill="#FFECB3"/><path d="M1.5 28.5l7.517-7.517M22.5 28.5l-7.517-7.517" stroke="#444" stroke-width="2" stroke-linecap="square"/></g></symbol><symbol id="qr-mobile" viewBox="0 0 32 44"><title>1F88FA5E-70B1-4E8F-9F73-2810B24F9CCB</title><g fill="none" fill-rule="evenodd"><path d="M0 2.005C0 .898.89 0 2.002 0h27.996C31.104 0 32 .899 32 2.005v39.99C32 43.102 31.11 44 29.998 44H2.002A2.004 2.004 0 0 1 0 41.995V2.005z" fill="#444"/><path fill="#CFD8DC" d="M2 2h28v40H2z"/><path fill="#444" d="M14 3h4v1h-4zM4 5h24v29H4z"/><path fill="#FFF" d="M6 7h20v25H6z"/><path d="M9 12h5v5H9v-5zm1 1h3v3h-3v-3zm1 1h1v1h-1v-1zm-2 7h5v5H9v-5zm0-3h1v2H9v-2zm1 0h1v1h-1v-1zm1 1h1v1h-1v-1zm2-1h1v1h-1v-1zm2-4h1v1h-1v-1zm1-2h1v1h-1v-1zm1 7h1v1h-1v-1zm3-1h1v1h-1v-1zm2 0h1v1h-1v-1zm-1 1h1v1h-1v-1zm-3 2h1v1h-1v-1zm1 1h1v1h-1v-1zm-1 1h1v1h-1v-1zm1 1h1v1h-1v-1zm-1 1h1v1h-1v-1zm-1 0h1v1h-1v-1zm-2 0h1v1h-1v-1zm7-2h1v1h-1v-1zm-1-1h1v1h-1v-1zm1 3h1v1h-1v-1zm-10-7h1v2h-1v-2zm2 0h1v2h-1v-2zm1-2h1v2h-1v-2zm1 1h1v2h-1v-2zm-1 2h1v2h-1v-2zm1 1h1v2h-1v-2zm-1 2h1v2h-1v-2zm1 1h1v2h-1v-2zm1-1h1v2h-1v-2zm1-4h1v2h-1v-2zm1 1h1v2h-1v-2zm1 1h1v2h-1v-2zm2 0h1v2h-1v-2zm-2 3h1v3h-1v-3zm-4-9h1v2h-1v-2zm-1-2h1v2h-1v-2zm-5 10h3v3h-3v-3zm1 1h1v1h-1v-1zm7-11h5v5h-5v-5zm1 1h3v3h-3v-3zm1 1h1v1h-1v-1z" fill="#F44336"/><circle fill="#444" cx="16" cy="38" r="3"/><circle fill="#FFF" cx="16" cy="38" r="1"/></g></symbol><symbol id="sms-mobile" viewBox="0 0 45 44"><title>BABC4590-9FF7-468F-8B6D-0389BC6043BF</title><g transform="translate(1)" fill="none" fill-rule="evenodd"><path d="M12 2.005C12 .898 12.89 0 14.002 0h27.996C43.104 0 44 .899 44 2.005v39.99C44 43.102 43.11 44 41.998 44H14.002A2.004 2.004 0 0 1 12 41.995V2.005z" fill="#444"/><path fill="#CFD8DC" d="M14 2h28v40H14z"/><path fill="#444" d="M26 3h4v1h-4zM16 5h24v29H16z"/><path fill="#FFF" d="M18 7h20v25H18z"/><path d="M29.142 13.084c.06-.287 1.464-1.713 4.571-1.875-3.28-.694-6.063.447-5.714 1.875-.347 3.423 5.911 5.331 5.714 5.625.197 4.646-9.54 2.078-13.713 7.5 4.695-4.28 15.78-.868 15.998-7.5.12-2.233-6.766-3.344-6.856-5.625" fill="#F44336"/><circle fill="#444" cx="28" cy="38" r="3"/><circle fill="#FFF" cx="28" cy="38" r="1"/><g transform="translate(0 11)"><use fill="#444" xlink:href="#sms-mobile-a"/><use stroke="#FFF" mask="url(#sms-mobile-b)" stroke-width="2" xlink:href="#sms-mobile-a"/></g><path d="M22 13H2v13h3a1 1 0 0 1 1 1v2.149l2.219-2.773c.012-.015.029-.021.041-.035.048-.053.104-.093.161-.135.05-.036.095-.074.149-.1.055-.027.114-.038.174-.054.068-.019.133-.038.203-.041C8.965 26.01 8.981 26 9 26h13V13z" fill="#E1F5FE"/><path fill="#444" d="M6 16h12v1H6zM6 19h12v1H6zM6 22h12v1H6z"/></g></symbol><symbol id="type" viewBox="0 0 34 40"><title>BD91719E-B12C-4F81-80DC-F5B42FD7E188</title><g fill="none" fill-rule="evenodd"><path d="M13 6v28h-.999A2.002 2.002 0 0 0 10 35.998v2.004c0 1.104.897 1.998 2.006 1.998h9.988A2.004 2.004 0 0 0 24 38.002v-2.004C24 34.894 23.1 34 21.999 34H21V6h7v2.995c0 1.107.898 2.005 1.998 2.005h2.004A2 2 0 0 0 34 9.002V2.005A2 2 0 0 0 32 0H2a2 2 0 0 0-2 2.005v6.997A2 2 0 0 0 1.998 11h2.004A1.999 1.999 0 0 0 6 8.995V6h7z" fill="#444"/><path fill="#C8E7C9" d="M19 4h11v5h2V2H2v7h2V4h11v32h-3v2h10v-2h-3z"/></g></symbol><symbol id="upload" viewBox="0 0 44 42"><title>8E05BB07-0F9F-464A-AC31-3743C3CF9929</title><g fill="none" fill-rule="evenodd"><use stroke="#444" mask="url(#upload-b)" stroke-width="4" fill="#E1F5FE" xlink:href="#upload-a"/><path fill="#E1F5FE" d="M15 32h14v2H15z"/><path d="M21 21.414l-4.293 4.294a1 1 0 0 1-1.414-1.414l6-6.001a1 1 0 0 1 1.414 0l6 6a1 1 0 0 1-1.414 1.415L23 21.414V41a1 1 0 0 1-2 0V21.414z" fill="#444"/></g></symbol></svg>